<svg width="39" height="61" viewBox="0 0 39 61" fill="none" xmlns="http://www.w3.org/2000/svg">
<path d="M36.7583 53.4186C37.7171 54.4032 39.3956 55.1331 38.9154 56.7226C38.4945 58.1397 37.1088 59.2971 35.811 60.0707C35.7039 60.1399 35.5795 60.1827 35.4495 60.195C35.3195 60.2074 35.1883 60.1889 35.0682 60.1414C30.1682 61.2825 25.105 60.9689 20.0765 60.9364C14.6012 60.949 9.12886 60.7017 3.681 60.1953C3.55518 60.2056 3.42856 60.1871 3.31232 60.1414C3.18389 60.105 3.06608 60.0421 2.96781 59.9574C1.72771 59.1893 0.172774 57.9287 0.0145334 56.506C-0.16074 54.9481 1.28925 54.391 2.21232 53.4176C1.94713 53.1454 1.74261 52.8275 1.61051 52.4821C1.4784 52.1367 1.4213 51.7705 1.44249 51.4047C1.46367 51.0388 1.56272 50.6803 1.73395 50.35C1.90519 50.0196 2.14524 49.7237 2.44034 49.4793C3.58649 48.3707 5.43373 47.6891 6.42823 46.4666C6.42765 46.3982 6.43539 46.33 6.45131 46.2633C6.63499 45.3231 6.69037 44.3652 6.61614 43.4122C6.60904 43.2582 6.65431 43.106 6.74557 42.977C6.83683 42.8479 6.9695 42.7486 7.12493 42.693C7.18215 42.6059 7.25862 42.531 7.34934 42.4732C7.44005 42.4154 7.54296 42.3759 7.6513 42.3575C8.3642 42.2173 9.08716 42.125 9.81448 42.0815C10.4189 40.8916 11.3755 39.9467 12.0013 38.7776C12.9952 36.9116 12.9134 34.8723 12.8436 32.8437C12.7057 29.8625 12.3501 26.8934 11.7793 23.9566C9.8436 23.367 8.42767 21.4197 9.60404 19.6127C10.2941 18.5508 11.643 18.3775 12.8667 18.3038C14.6562 18.1904 12.9721 17.1408 12.3172 16.6432C11.3354 15.8743 10.5556 14.9087 10.037 13.8196C9.4077 12.5101 9.07343 11.0957 9.05459 9.66271C9.00483 7.99424 9.3962 6.33976 10.1947 4.84302C10.6451 4.01596 11.242 3.26448 11.9606 2.61972C12.7202 1.96268 13.5913 1.42554 14.5392 1.02976C16.4915 0.225352 18.6297 -0.116518 20.7606 0.0350176C22.8887 0.156315 24.9523 0.758057 26.771 1.78763C28.5445 2.76273 29.8949 4.2795 30.5896 6.07666C30.8916 6.91674 31.032 7.79929 31.0045 8.68423C30.9724 9.50485 30.8229 10.3179 30.56 11.1022C30.4957 11.27 30.4374 11.4377 30.3731 11.6049C30.2968 11.7889 30.2149 11.9673 30.1391 12.1407C29.9814 12.4965 29.8001 12.806 29.6303 13.1252C29.2869 13.7185 28.8944 14.2863 28.4561 14.8235C27.711 15.7645 26.801 16.5837 25.7638 17.247C24.0507 18.318 26.132 18.2367 27.0853 18.3775C27.5472 18.4094 27.9956 18.5368 28.3973 18.7502C28.7991 18.9636 29.144 19.2576 29.4067 19.6106C30.588 21.4283 29.1319 23.3812 27.1847 23.9596C26.5314 27.2243 26.1716 30.5335 26.1089 33.8532C26.0973 35.8549 26.132 37.7427 27.4243 39.4572C28.0833 40.2808 28.6588 41.159 29.1435 42.0805C29.8728 42.124 30.5978 42.2163 31.3127 42.3565C31.4205 42.3742 31.5229 42.4134 31.6127 42.4713C31.7026 42.5293 31.7777 42.6045 31.833 42.692C31.9898 42.7458 32.1238 42.8447 32.2153 42.9742C32.3069 43.1036 32.3512 43.2568 32.3418 43.4112C32.2706 44.3642 32.326 45.3217 32.5066 46.2623C32.5273 46.3283 32.5372 46.3969 32.5358 46.4656C33.6 47.7694 35.5764 48.3463 36.6874 49.6516C37.7638 50.9249 37.8165 52.2287 36.7583 53.4186ZM35.3077 58.4218C35.9161 58.0357 36.4566 57.565 36.9099 57.0265C31.3556 58.9413 25.1105 58.525 19.2694 58.4813C14.0013 58.4437 8.11558 59.2336 2.93265 57.9079C3.24772 58.1564 3.57972 58.386 3.9266 58.5951C9.29273 59.0944 14.6833 59.3345 20.0765 59.3144C25.1105 59.3306 30.2446 59.6986 35.1314 58.4503C35.1891 58.436 35.2481 58.4265 35.3077 58.4218ZM36.9802 55.7878C36.4599 55.1778 35.7116 54.7656 35.1616 54.1612C34.8387 54.1943 34.5184 54.2466 34.2028 54.3178C33.7683 54.3987 33.3291 54.4566 32.8874 54.4911C32.27 54.5297 31.6504 54.5261 31.0336 54.4804C30.116 54.4047 29.7764 54.2853 29.7764 54.1612C29.7764 54.0372 30.1215 53.934 31.0281 53.8471C31.4781 53.8039 32.0627 53.7556 32.794 53.6743C33.1506 53.6041 33.5599 53.5767 33.9863 53.4633C34.2204 53.4201 34.4775 53.3495 34.7759 53.3012C34.8075 53.1431 34.8937 52.9989 35.0215 52.89C35.0626 52.771 35.1349 52.6632 35.2319 52.5764C36.6 51.2995 34.9336 50.2123 33.7819 49.4335C33.1446 49.0061 32.4896 48.4002 31.8407 48.0271C31.2483 47.7645 30.5861 47.6666 29.9347 47.7455C29.5183 47.748 29.1021 47.7246 28.6891 47.6753C28.0754 47.594 27.8473 47.4913 27.8352 47.3673C27.8232 47.2433 28.0693 47.1238 28.683 47.0425C28.9929 46.9993 29.3907 46.9668 29.888 46.9236C30.1506 46.8966 30.449 46.8641 30.7589 46.8153C30.7478 46.7224 30.7577 46.6284 30.788 46.5393C30.611 45.666 30.5444 44.7766 30.5896 43.889C30.1106 43.8036 29.6261 43.7475 29.1391 43.7213C28.6133 43.7721 28.1501 43.8026 27.7534 43.8296C27.3008 43.8393 26.8479 43.8266 26.3968 43.7914C25.7188 43.7375 25.4627 43.6389 25.4627 43.5159C25.4627 43.3929 25.7199 43.2669 26.3748 43.1601C26.6847 43.1062 27.094 43.0681 27.6144 43.0142C27.6046 42.9588 27.6007 42.9026 27.6028 42.8465C26.8539 41.4024 25.5094 40.1957 24.9715 38.6703C24.4692 37.1102 24.2614 35.4817 24.3572 33.8562C24.4403 30.4036 24.8173 26.9625 25.4847 23.5647C25.1924 23.5703 24.9177 23.5703 24.666 23.5647C23.9413 23.554 23.3743 23.5271 22.9474 23.4945C22.0875 23.4244 21.7661 23.3161 21.7721 23.1896C21.7781 23.063 22.1051 22.9517 22.9474 22.8597C23.3682 22.8088 23.9177 22.7733 24.6254 22.7407C24.9704 22.7189 25.3501 22.7026 25.7715 22.6869C25.8847 22.5991 26.0224 22.5427 26.1688 22.5242C26.9056 22.4108 27.882 22.0052 28.0693 21.2423C28.2341 20.5718 27.7358 20.1748 27.0869 20.0467C25.8886 19.8145 24.6485 19.9171 23.4386 19.7601C23.2534 19.7133 23.0901 19.6112 22.9741 19.4698C22.858 19.3283 22.7957 19.1554 22.7968 18.9778V18.2911C22.5548 18.3241 22.3091 18.3277 22.0661 18.3018C21.8124 18.2937 21.5609 18.2556 21.3177 18.1884C20.9199 18.069 20.7325 17.9825 20.7501 17.9175C20.7798 17.7609 21.6155 17.9337 22.943 17.5713C23.7309 17.3125 24.4628 16.9261 25.1045 16.4302C25.9627 15.7555 26.7058 14.9648 27.3089 14.0849C28.6479 12.1701 29.9462 9.33028 28.8759 6.63681C28.2743 5.23154 27.1732 4.0578 25.7539 3.30897C24.1903 2.45767 22.4309 1.9609 20.6199 1.8593C16.9012 1.60871 13.2002 2.99383 11.8079 5.62275C11.0972 6.86935 10.7147 8.25354 10.6914 9.66271C10.6485 10.9077 10.863 12.1488 11.3233 13.3194C11.6387 14.1702 12.1373 14.953 12.7889 15.6205C13.4405 16.2881 14.2316 16.8265 15.1144 17.2033C16.3892 17.7172 17.2573 17.7386 17.2425 17.8956C17.237 17.9607 17.032 18.009 16.6381 18.0481C16.5507 18.0532 16.4452 18.0588 16.3397 18.0588C16.3542 18.1247 16.3621 18.1918 16.3633 18.2591V18.9783C16.3633 18.9946 16.3573 19.0108 16.3573 19.0215C17.0243 19.1135 17.5446 19.2162 17.9364 19.2757C18.7199 19.3946 19.0298 19.5186 19.0298 19.6432C19.0298 19.7677 18.7551 19.8648 17.9128 19.9085C17.3739 19.912 16.8352 19.8884 16.2991 19.8378C16.0474 19.8165 15.8078 19.7946 15.5271 19.7733C14.3518 19.9085 13.0189 19.7677 11.8727 20.0488C9.82601 20.5571 11.4167 22.3153 12.7963 22.5262C12.9784 22.5473 13.1464 22.6279 13.2699 22.7534C13.8541 22.8712 14.446 22.9525 15.0419 22.9969C16.182 23.0833 17.0941 23.0833 17.7892 23.1159C19.1864 23.1591 19.7243 23.2729 19.7243 23.3975C19.7243 23.522 19.204 23.6297 17.8067 23.7487C16.8678 23.8254 15.9246 23.849 14.9826 23.8193C14.4856 23.8023 13.9901 23.7571 13.4991 23.6841C14.2362 27.3539 14.61 31.0782 14.6161 34.8108C14.593 36.1578 14.5694 37.6237 13.9084 38.8625C13.1601 40.2577 12.0787 41.4314 11.365 42.8379C12.5585 43.0716 13.7679 43.2289 14.9848 43.3085C16.5106 43.4061 17.715 43.4331 18.6446 43.4544C20.4924 43.5053 21.2177 43.6069 21.2353 43.8168C21.2529 44.012 20.5683 44.2713 18.6913 44.4934C17.4361 44.6307 16.1719 44.6849 14.9084 44.6555C12.9129 44.6151 10.9324 44.3258 9.02052 43.7955C8.81009 43.8168 8.5936 43.8494 8.37712 43.8875C8.41964 44.7715 8.35291 45.6571 8.17822 46.5271C8.91423 46.753 9.67216 46.9125 10.4414 47.0034C11.4304 47.1386 12.3535 47.1981 13.1952 47.2738C14.8617 47.3709 16.148 47.4685 17.1512 47.5442C19.1567 47.6682 19.9166 47.8522 19.9166 48.0525C19.9166 48.2528 19.1567 48.4419 17.1452 48.5771C16.1397 48.6365 14.7947 48.6477 13.093 48.6203C12.2513 48.5827 11.304 48.5501 10.2359 48.4256C9.28251 48.3289 8.34463 48.1293 7.44141 47.8309C6.65373 48.4669 5.82153 49.054 4.95022 49.5886C3.84528 50.3729 2.43595 51.3676 3.72825 52.5748C3.82693 52.6615 3.90125 52.7692 3.94473 52.8885C3.98441 52.9223 4.01964 52.9603 4.04968 53.0018C5.151 53.4379 6.32693 53.6907 7.52328 53.7485C8.17199 53.7973 8.79177 53.8459 9.38261 53.8944C9.97876 53.9488 10.5403 54.0027 11.0722 54.0514C11.5925 54.1023 12.0837 54.1648 12.5557 54.1917C13.0276 54.2187 13.4623 54.2461 13.8771 54.2731C14.7073 54.3325 15.4386 54.3544 16.0749 54.392C18.6062 54.5328 19.5771 54.7005 19.5771 54.9059C19.5771 55.1112 18.6183 55.3008 16.0688 55.4305C15.4254 55.4579 14.6952 55.4955 13.8408 55.4848C13.4139 55.4848 12.9579 55.4793 12.4787 55.4793C11.9936 55.4686 11.4848 55.4254 10.9403 55.3928C9.87601 55.3278 8.69525 55.2576 7.38537 55.1763C6.66551 55.1292 5.94971 55.0389 5.24252 54.9059C4.6712 54.8012 4.11428 54.6379 3.58209 54.4189C3.37535 54.6353 3.15048 54.8362 2.90957 55.0198C2.52935 55.3008 1.68156 55.7715 1.7398 56.3017C1.74312 56.3239 1.74901 56.3457 1.75738 56.3667C6.85625 58.1514 12.8013 57.2969 18.1468 57.3325C24.2803 57.3833 31.1973 58.0019 36.9802 55.7878Z" fill="white"/>
</svg>
