<?xml version="1.0" encoding="utf-8"?>
<!-- Generator: Adobe Illustrator 27.2.0, SVG Export Plug-In . SVG Version: 6.00 Build 0)  -->
<svg version="1.1" xmlns="http://www.w3.org/2000/svg" xmlns:xlink="http://www.w3.org/1999/xlink" x="0px" y="0px"
	 viewBox="0 0 1024 1024" style="enable-background:new 0 0 1024 1024;" xml:space="preserve">
<style type="text/css">
	.st0{display:none;fill:#FFFFFF;}
	.st1{display:none;}
	.st2{display:inline;fill:none;stroke:#000000;stroke-width:5;stroke-miterlimit:10;}
</style>
<g id="Слой_3">
</g>
<g id="Слой_1">
	<g>
		<path class="st0" d="M175,174c225,0,450,0,675,0c0,225,0,450,0,675c-225,0-450,0-675,0C175,624,175,399,175,174z M402.2,272.4
			c-4.9,0-9.8-0.5-14.6,0.1c-7.1,0.9-14.1,2.5-21.1,4c-5.2,1-10.7,1.5-15.5,3.5c-9.1,3.7-18,7.8-26.5,12.6
			c-11.9,6.8-21.1,16.6-27.2,29c-2.9,6-5.5,12.3-7.2,18.7c-1.9,7.2-3.8,14.7-3.9,22.1c-0.4,34.9-0.3,69.7-0.1,104.6
			c0,7.3,0.9,14.6,1.5,21.9c0.3,3.7,0.8,7.4,1.6,11c1.2,5.4,2.4,10.9,4,16.1c3.1,9.7,5.7,19.6,9.9,28.7
			c5.2,11.1,11.6,21.7,18.1,32.1c4.2,6.7,9.1,13.1,14.4,18.9c5.6,6.1,12.2,11.4,18.3,17c8,7.4,18.1,11.2,27.8,15.7
			c2.6,1.2,5.4,1.8,7.9,3.1c5.4,2.7,11.1,5.1,16,8.7c9.6,7.1,16.6,16.7,22.5,27.1c8.3,14.6,13.6,30.3,17.2,46.6
			c2.4,10.8,5.5,21.2,11.4,30.9c6.6,10.9,15.7,18.8,26.6,24.9c8.3,4.6,17.3,6.8,26.6,5.3c5.9-0.9,11.9-2.8,17-5.7
			c8.7-5.1,16.3-11.7,22.1-20.2c7.6-11.1,15.4-21.9,23.3-32.8c4.2-5.7,8.5-11.3,13.2-16.6c3.5-3.9,8.3-3.3,11.8,0.4
			c7.3,8.1,14.6,16.3,22.1,24.3c7.1,7.6,15.4,13.8,25,18c9.8,4.2,19.7,5.3,30.1,1.9c6.9-2.3,13.1-5.6,18.8-10c9-7,17-15,23.5-24.3
			c7.5-10.8,15-21.7,19.4-34.3c2.2-6.2,5.1-12.2,6.8-18.5c2.1-7.9,3.4-15.9,4.6-24c1.2-7.9,2.4-15.9,2.6-23.9
			c0.2-7.5-0.8-15.1-1.3-22.6c-0.4-6.2-1-12.3-1.4-18.5c-0.8-12.8-3.2-25.4-7.5-37.4c-5.5-15.4-12-30.5-18.2-45.6
			c-3-7.2-6.6-14.2-9.8-21.4c-5.7-12.7-11-25.6-17.1-38.1c-2.8-5.6-6.8-10.8-11.1-15.3c-6.7-7-14.3-13.1-21.4-19.7
			c-7-6.5-13.2-13.8-17.6-22.5c-4.5-8.6-9.3-17.1-13.3-25.9c-3.7-8.1-6.6-16.6-9.8-24.9c-4-10.5-7.9-21.1-12-31.7
			c-3.8-10-9.1-19-17-26.4c-8.9-8.3-20-11.8-31.4-12.8c-10.2-0.9-20.6,0.7-30.9,1.3c-3.6,0.2-7.1,0.8-10.6,1.5
			c-5.4,1.2-10.8,2.6-16.2,4c-10.8,2.7-21.1,6.4-30.2,13c-4.1,3-8.1,6.1-12.1,9.2c-7.2,5.5-15,4.3-22.8,1.9
			C426.6,273.8,414.6,271.7,402.2,272.4z"/>
		<path d="M402.2,272.4c12.4-0.7,24.4,1.3,36.2,5.1c7.8,2.5,15.6,3.6,22.8-1.9c4-3.1,8-6.2,12.1-9.2c9.1-6.6,19.5-10.3,30.2-13
			c5.4-1.4,10.7-2.8,16.2-4c3.5-0.8,7.1-1.3,10.6-1.5c10.3-0.7,20.7-2.2,30.9-1.3c11.4,1,22.5,4.5,31.4,12.8
			c7.9,7.4,13.2,16.4,17,26.4c4.1,10.5,8,21.1,12,31.7c3.2,8.3,6.1,16.8,9.8,24.9c4,8.8,8.9,17.3,13.3,25.9
			c4.4,8.6,10.6,15.9,17.6,22.5c7.1,6.6,14.7,12.7,21.4,19.7c4.4,4.5,8.4,9.7,11.1,15.3c6.2,12.5,11.4,25.4,17.1,38.1
			c3.2,7.2,6.8,14.2,9.8,21.4c6.3,15.1,12.7,30.2,18.2,45.6c4.3,12,6.7,24.6,7.5,37.4c0.4,6.2,1,12.3,1.4,18.5
			c0.5,7.5,1.5,15.1,1.3,22.6c-0.2,8-1.4,16-2.6,23.9c-1.2,8.1-2.5,16.1-4.6,24c-1.7,6.3-4.6,12.3-6.8,18.5
			c-4.4,12.6-11.9,23.5-19.4,34.3c-6.5,9.3-14.5,17.3-23.5,24.3c-5.8,4.5-11.9,7.8-18.8,10c-10.4,3.4-20.3,2.4-30.1-1.9
			c-9.6-4.2-17.8-10.4-25-18c-7.5-8-14.8-16.1-22.1-24.3c-3.4-3.8-8.3-4.3-11.8-0.4c-4.7,5.2-9,10.9-13.2,16.6
			c-7.9,10.8-15.7,21.7-23.3,32.8c-5.8,8.5-13.4,15.2-22.1,20.2c-5.1,3-11.2,4.8-17,5.7c-9.3,1.5-18.3-0.7-26.6-5.3
			c-10.9-6.1-20-14-26.6-24.9c-5.8-9.6-8.9-20-11.4-30.9c-3.7-16.3-9-32-17.2-46.6c-5.9-10.4-12.9-19.9-22.5-27.1
			c-4.8-3.6-10.5-6-16-8.7c-2.5-1.3-5.4-1.9-7.9-3.1c-9.7-4.5-19.7-8.3-27.8-15.7c-6.1-5.6-12.7-10.9-18.3-17
			c-5.3-5.8-10.2-12.2-14.4-18.9c-6.5-10.4-12.9-21-18.1-32.1c-4.3-9.1-6.9-19.1-9.9-28.7c-1.7-5.3-2.9-10.7-4-16.1
			c-0.8-3.6-1.3-7.3-1.6-11c-0.6-7.3-1.5-14.6-1.5-21.9c-0.2-34.9-0.3-69.7,0.1-104.6c0.1-7.4,2-14.9,3.9-22.1
			c1.7-6.4,4.3-12.7,7.2-18.7c6.1-12.4,15.3-22.2,27.2-29c8.5-4.9,17.4-8.9,26.5-12.6c4.8-2,10.3-2.5,15.5-3.5c7-1.4,14-3.1,21.1-4
			C392.4,271.9,397.3,272.4,402.2,272.4z M426.5,454.7c1.6,1.6,3.1,2.7,4,4.2c4.2,6.6,7.8,13.6,12.4,19.9c6.1,8.3,12.9,16,19.4,24
			c6.8,8.3,13.9,16.4,20.5,25c4.5,5.9,8.8,12,12.1,18.6c4.1,8.2,6.7,17.1,10.7,25.3c5.1,10.4,8.9,21.2,12.1,32.3
			c2.6,8.9,5.8,17.6,8.5,26.4c1.7,5.5,2.9,11.1,4.7,16.5c1.6,4.9,3.4,9.8,5.7,14.4c3.4,6.7,10.9,7.9,15.7,2.3
			c3.4-4,6.5-8.5,8.7-13.3c5-11,9.2-22.4,14.2-33.5c3.6-8.1,4.3-16.6,4.9-25.1c0.3-4,0.1-8,0.2-12c0.2-9.6-1.3-18.8-6.1-27.4
			c-3.7-6.4-6.4-13.4-10-19.8c-3.9-7-8.5-13.7-12.6-20.6c-0.6-1-0.5-2.3-0.8-3.8c-0.2,0-1,0-1.5-0.5c-5.3-4.5-10.5-9.1-15.7-13.8
			c-1.1-1-1.8-2.4-2.5-3.7c-2.2-4.5,0-8.2,5-8.6c2.7-0.2,5.3-0.9,8-1.3c3-0.5,6.1-1.5,9.1-1.4c6.5,0.1,13.1,0.4,19.6,1.4
			c5.4,0.9,11.1,1.8,14.8,6.9c1.7,2.4,4,4.5,5.5,7c3,5.2,6.2,10.5,5.3,17c-0.9,5.8-2.1,11.6-2.5,17.4c-0.8,10.7,0.7,21.2,4,31.5
			c1.3,4,2.2,8.1,4,11.9c1.6,3.5,4.2,6.4,6,9.8c5.5,9.8,12.3,18.5,20.1,26.6c6.3,6.5,14,8.7,22.4,9.6c6.9,0.8,13.8,1.5,20.7,1.4
			c12-0.2,24.2,1.7,36.1-1.5c6.2-1.6,10.4-6.3,13.2-11.5c3.4-6.1,5.7-12.9,7.8-19.5c1.9-5.9,3.5-12,4-18.1c0.6-6.9,0-14-0.1-21
			c0-1.5-0.2-3-0.5-4.4c-1.2-6.2-2.5-12.4-3.8-18.6c-0.7-3.4-1.3-6.9-2.4-10.2c-1.8-5.1-4-10.1-6.1-15.1c-3.7-8.7-7.4-17.3-11.1-26
			c-3.5-8.2-7.5-16.3-10.7-24.6c-4.6-12-9.5-24-18.1-33.5c-6.5-7.2-14.5-13.2-21.7-19.8c-2.9-2.7-6.1-5.3-8.4-8.5
			c-5.6-7.8-10.9-15.7-15.9-23.8c-4.6-7.6-8.8-15.6-12.8-23.6c-3.5-7.1-6.5-14.4-9.6-21.7c-0.4-0.8,0.2-2,0.1-2.9
			c-0.2-1.4-0.7-2.7-1.1-4.1c-2.5,1.7-2.1-1-2.5-1.9c-4.2-10.7-7.6-21.7-14.4-31.2c-6.8-9.5-16.2-15-27.4-16.7
			c-9.6-1.5-19.6-1.3-29.4-1.7c-2.7-0.1-5.5,0.1-8.2,0.6c-6.3,1.1-12.6,2.4-18.8,3.8c-4.7,1-9.5,1.7-13.8,3.5
			c-11,4.7-20,11.7-25.1,23.1c-1.2,2.7-3.6,5.1-6,7c-2.4,2.1-5.2,2.6-8.5,0.8c-6.4-3.4-13.1-6.5-19.9-9c-8.5-3.1-17.3-5.4-26.6-5.3
			c-12.2,0.1-24.3-0.1-36.2,3c-5.2,1.4-10.3,3.1-15.5,4.6c-1.2,0.4-2.4,0.6-3.5,1.1c-2.1,0.8-4.4,1.5-6.3,2.7
			c-2.5,1.6-4.7,3.7-7.1,5.5c-4.5,3.3-4.2,8.8,0.8,11.4c2.8,1.4,5.6,2.7,8.3,4.2c5,2.8,10.3,5.2,14.8,8.7c4.7,3.7,8.7,8.4,12.9,12.7
			c1,1.1,2.3,2.1,2.9,3.4c4.5,9.1,8.9,18.3,13.2,27.4c0.8,1.8,1.4,3.7,1.9,5.6c1.9,6.2,3.7,12.5,5.8,18.6c1.6,4.7,3.8,9.2,5.5,13.8
			c2.3,6.2,4,12.6,6.5,18.7c3.3,8,7.1,15.8,10.5,23.7C426.5,451.1,426.4,453.5,426.5,454.7z M311,481.9c-0.3,0-0.6,0.1-0.8,0.1
			c0.8,5.2,1.8,10.4,2.2,15.7c0.5,7.8,3,15.1,6.4,21.9c4.5,9.3,10.6,18,15,27.4c5.3,11.1,15,17.6,24.1,24.8
			c5.3,4.2,11.4,7.4,16.8,11.5c8.5,6.6,17.2,13.2,24.9,20.6c6.5,6.2,11.9,13.6,17.6,20.7c4.2,5.1,7.7,10.8,12,15.8
			c7.4,8.6,14.7,16.9,17.3,28.5c1.7,7.3,3.4,14.5,3.9,22c0.2,3.4,0.8,6.9,1.9,10.1c4.1,11.6,11.3,21.1,20.5,29.2
			c6.3,5.5,15.6,3.8,18.2-3.9c1.9-5.4,3-11.3,3.3-17c0.3-6.6-0.6-13.3-1.4-20c-0.5-4-0.9-8.4-2.7-11.8c-4.2-7.8-9-15.4-14.3-22.6
			c-4.3-5.9-2.8-12.8-4.5-19.1c0-0.1,0-0.2,0.1-0.4c1.4-5.2,2.9-10.4,4.3-15.6c0.5-1.7,1.3-3.3,1.3-5c0.2-5.3,0.4-10.6,0-15.8
			c-0.2-3.6-1.1-7.3-2.1-10.8c-2.5-8.5-9-14.4-13.8-21.4c-3.3-4.8-8.8-7-14.4-8.7c-7.2-2.2-14.4-4.5-21.5-6.9
			c-5.4-1.8-11-3.4-15.8-6.2c-7.3-4.2-14.1-9.3-21-14c-7.8-5.3-16-10.1-22.1-17.5c-1.4-1.7-2.7-3.5-3.9-5.4
			c-5-7.6-10.2-15.2-14.8-23c-2.5-4.2-4-9-6-13.6c-1.7-3.9-3.7-7.6-5-11.6c-1.4-4.3-2.9-8.8-3.1-13.3c-0.5-9.9-0.2-19.7-0.1-29.6
			c0-1.3,0-2.8,0.6-4c1.4-3.1,1.1-6-0.4-8.9c-1.9-3.6-5.9-4.4-9-1.8c-3.9,3.3-4.6,8-4.7,12.5c-0.1,11.6-2.4,22.5-7,33.1
			c-2.4,5.5-4.4,11.1-3.4,17.3c0.4,2.2,1.3,4.2,1.5,6.4C311.2,474.9,311,478.4,311,481.9z M301.1,413.1c0.1,0,0.2,0,0.3,0
			c0-21.3,0-42.6,0-63.8c-0.1,0-0.2,0-0.3,0C301.1,370.5,301.1,391.8,301.1,413.1z M371.9,402.6c-0.2,0-0.4,0-0.6,0
			c0,5.4,0,10.8,0,16.2c0.2,0,0.4,0,0.6,0C371.9,413.4,371.9,408,371.9,402.6z"/>
		<path class="st0" d="M426.5,454.7c-0.2-1.3,0-3.6-0.8-5.5c-3.4-8-7.2-15.7-10.5-23.7c-2.5-6.1-4.3-12.5-6.5-18.7
			c-1.7-4.6-3.9-9.1-5.5-13.8c-2.1-6.1-3.8-12.4-5.8-18.6c-0.6-1.9-1.1-3.8-1.9-5.6c-4.3-9.2-8.7-18.3-13.2-27.4
			c-0.6-1.3-1.9-2.3-2.9-3.4c-4.3-4.3-8.2-9.1-12.9-12.7c-4.5-3.5-9.8-5.9-14.8-8.7c-2.7-1.5-5.6-2.8-8.3-4.2c-5-2.6-5.3-8-0.8-11.4
			c2.4-1.8,4.6-3.9,7.1-5.5c1.9-1.2,4.2-1.8,6.3-2.7c1.1-0.4,2.3-0.7,3.5-1.1c5.2-1.6,10.3-3.3,15.5-4.6c11.9-3.1,24-2.9,36.2-3
			c9.3-0.1,18.1,2.2,26.6,5.3c6.8,2.5,13.4,5.6,19.9,9c3.4,1.8,6.1,1.3,8.5-0.8c2.3-2,4.7-4.3,6-7c5.1-11.4,14.1-18.4,25.1-23.1
			c4.3-1.8,9.2-2.5,13.8-3.5c6.3-1.4,12.5-2.6,18.8-3.8c2.7-0.5,5.5-0.7,8.2-0.6c9.8,0.4,19.7,0.2,29.4,1.7
			c11.1,1.7,20.5,7.2,27.4,16.7c6.8,9.5,10.2,20.5,14.4,31.2c0.3,0.9-0.1,3.6,2.5,1.9c0.4,1.3,0.8,2.7,1.1,4.1
			c0.2,1-0.4,2.1-0.1,2.9c3.1,7.3,6.1,14.6,9.6,21.7c4,8,8.2,15.9,12.8,23.6c4.9,8.2,10.3,16.1,15.9,23.8c2.3,3.2,5.5,5.8,8.4,8.5
			c7.2,6.6,15.2,12.6,21.7,19.8c8.7,9.6,13.5,21.5,18.1,33.5c3.2,8.3,7.1,16.4,10.7,24.6c3.7,8.6,7.4,17.3,11.1,26
			c2.1,5,4.3,10,6.1,15.1c1.2,3.3,1.7,6.8,2.4,10.2c1.3,6.2,2.6,12.4,3.8,18.6c0.3,1.5,0.5,3,0.5,4.4c0.1,7,0.7,14,0.1,21
			c-0.6,6.1-2.2,12.2-4,18.1c-2.1,6.7-4.4,13.5-7.8,19.5c-2.8,5.1-7.1,9.8-13.2,11.5c-11.9,3.1-24,1.3-36.1,1.5
			c-6.9,0.1-13.8-0.7-20.7-1.4c-8.4-0.9-16.2-3.1-22.4-9.6c-7.8-8.1-14.6-16.8-20.1-26.6c-1.9-3.3-4.4-6.3-6-9.8
			c-1.7-3.8-2.7-7.9-4-11.9c-3.2-10.3-4.8-20.8-4-31.5c0.4-5.8,1.7-11.6,2.5-17.4c1-6.5-2.2-11.8-5.3-17c-1.5-2.5-3.8-4.6-5.5-7
			c-3.6-5.1-9.4-6-14.8-6.9c-6.4-1-13-1.3-19.6-1.4c-3-0.1-6.1,0.9-9.1,1.4c-2.7,0.4-5.3,1.1-8,1.3c-5,0.4-7.2,4.1-5,8.6
			c0.7,1.3,1.4,2.7,2.5,3.7c5.2,4.7,10.4,9.2,15.7,13.8c0.5,0.4,1.4,0.4,1.5,0.5c0.3,1.5,0.2,2.9,0.8,3.8
			c4.2,6.9,8.7,13.6,12.6,20.6c3.6,6.4,6.4,13.4,10,19.8c4.9,8.6,6.3,17.8,6.1,27.4c-0.1,4,0,8-0.2,12c-0.6,8.6-1.2,17-4.9,25.1
			c-5,11.1-9.1,22.5-14.2,33.5c-2.2,4.8-5.2,9.3-8.7,13.3c-4.8,5.6-12.3,4.5-15.7-2.3c-2.3-4.6-4.1-9.5-5.7-14.4
			c-1.8-5.4-3-11.1-4.7-16.5c-2.8-8.8-6-17.5-8.5-26.4c-3.2-11.1-7-21.9-12.1-32.3c-4.1-8.2-6.6-17.1-10.7-25.3
			c-3.3-6.6-7.6-12.7-12.1-18.6c-6.5-8.6-13.6-16.7-20.5-25c-6.5-8-13.3-15.7-19.4-24c-4.6-6.3-8.2-13.3-12.4-19.9
			C429.6,457.5,428.1,456.4,426.5,454.7z M500.2,429.9c-3.4,0-6.7,5.2-5.6,9c3,10.8,9.4,19.3,17.6,26.7c0.6,0.5,1.7,0.6,2.6,0.8
			c0.2-0.9,0.8-1.8,0.6-2.6c-1.1-3.7-2.5-7.4-3.7-11.1c-1.4-4.5-2.8-8.9-3.8-13.5C507.1,435.4,502.9,429.9,500.2,429.9z"/>
		<path class="st0" d="M311,481.9c0-3.5,0.2-7-0.1-10.5c-0.2-2.2-1.2-4.2-1.5-6.4c-1-6.2,1-11.8,3.4-17.3c4.7-10.6,6.9-21.5,7-33.1
			c0-4.4,0.8-9.2,4.7-12.5c3.1-2.6,7.1-1.8,9,1.8c1.5,2.9,1.9,5.8,0.4,8.9c-0.5,1.2-0.6,2.7-0.6,4c0,9.9-0.3,19.8,0.1,29.6
			c0.2,4.5,1.7,9,3.1,13.3c1.3,4,3.3,7.7,5,11.6c2,4.5,3.5,9.4,6,13.6c4.6,7.9,9.8,15.4,14.8,23c1.2,1.9,2.5,3.7,3.9,5.4
			c6.1,7.4,14.4,12.2,22.1,17.5c7,4.8,13.7,9.9,21,14c4.9,2.8,10.5,4.4,15.8,6.2c7.1,2.5,14.3,4.8,21.5,6.9
			c5.6,1.7,11.2,3.8,14.4,8.7c4.8,7,11.3,13,13.8,21.4c1,3.5,1.9,7.2,2.1,10.8c0.3,5.2,0.2,10.5,0,15.8c-0.1,1.7-0.9,3.3-1.3,5
			c-1.4,5.2-2.9,10.4-4.3,15.6c0,0.1-0.1,0.3-0.1,0.4c1.6,6.3,0.2,13.2,4.5,19.1c5.2,7.2,10,14.8,14.3,22.6
			c1.9,3.4,2.2,7.8,2.7,11.8c0.8,6.6,1.7,13.3,1.4,20c-0.2,5.7-1.4,11.6-3.3,17c-2.7,7.8-11.9,9.5-18.2,3.9
			c-9.2-8.1-16.5-17.6-20.5-29.2c-1.1-3.2-1.7-6.7-1.9-10.1c-0.5-7.5-2.2-14.7-3.9-22c-2.6-11.7-10-20-17.3-28.5
			c-4.3-5-7.9-10.6-12-15.8c-5.7-7-11.1-14.4-17.6-20.7c-7.7-7.4-16.4-14-24.9-20.6c-5.4-4.1-11.5-7.3-16.8-11.5
			c-9.1-7.2-18.8-13.6-24.1-24.8c-4.5-9.4-10.5-18-15-27.4c-3.3-6.8-5.8-14.1-6.4-21.9c-0.3-5.3-1.4-10.5-2.2-15.7
			C310.4,482,310.7,481.9,311,481.9z"/>
		<path class="st0" d="M301.1,413.1c0-21.3,0-42.6,0-63.8c0.1,0,0.2,0,0.3,0c0,21.3,0,42.6,0,63.8
			C301.3,413.1,301.2,413.1,301.1,413.1z"/>
		<path class="st0" d="M371.9,402.6c0,5.4,0,10.8,0,16.2c-0.2,0-0.4,0-0.6,0c0-5.4,0-10.8,0-16.2
			C371.5,402.6,371.7,402.6,371.9,402.6z"/>
		<path d="M500.2,429.9c2.7,0,6.8,5.5,7.7,9.3c1,4.6,2.4,9,3.8,13.5c1.1,3.7,2.6,7.4,3.7,11.1c0.2,0.7-0.4,1.7-0.6,2.6
			c-0.9-0.3-2-0.3-2.6-0.8c-8.2-7.3-14.6-15.9-17.6-26.7C493.5,435.1,496.8,429.9,500.2,429.9z"/>
	</g>
</g>
<g id="Слой_2" class="st1">
	<path class="st2" d="M598.5,626c0,18.3-4.6,36.8-12.1,54.2c-31.7,73.3-115.6,125.9-128.3,52c-15.8-91.4-85.3-115.4-85.3-115.4
		s-86.8-44.4-80.7-132.8S265,332.4,332.4,293.6s117.4-11.7,119-11.7c0,0,65.4-45.3,111-31.3c45.6,14,31.5,30,78.2,115.1
		c46.7,85,21.4-19.1,92.7,146.4c71.7,166.4-41.1,237.6-79.7,232.8c0,0-46.6-9.1-69.3-59.9"/>
	<path class="st2" d="M380.9,389.4c0,0,13,16.1,21.4,49.8c8.4,33.7,90.4,111.8,90.4,111.8s26.8,38.3,26.8,60.5s0,22.2,0,22.2l0,0"/>
</g>
</svg>
