<?xml version="1.0" encoding="utf-8"?>
<!-- Generator: Adobe Illustrator 27.2.0, SVG Export Plug-In . SVG Version: 6.00 Build 0)  -->
<svg version="1.1" id="Слой_1" xmlns="http://www.w3.org/2000/svg" xmlns:xlink="http://www.w3.org/1999/xlink" x="0px" y="0px"
	 viewBox="0 0 1024 1024" style="enable-background:new 0 0 1024 1024;" xml:space="preserve">
<style type="text/css">
	.st0{fill:#2B2311;stroke:#2B2311;stroke-width:3;stroke-miterlimit:10;}
	.st1{fill:#B49526;}
	.st2{fill:#EAE237;}
	.st3{fill:#D6C424;}
	.st4{fill:#2B2311;}
	.st5{fill:#FDFDFD;}
	.st6{fill:#EDEDED;}
</style>
<path class="st0" d="M674.1,399.9c19,15.7,28.6,37.3,36.9,59.6c0.7,2.9,0.9,5.9,3.3,8.1c5.1,7.7,7.4,16.8,11.8,24.9
	c-0.2,1.2,0,2.3,0.6,3.5c1.5,3.4,3.1,6.7,4.7,10c1.8,3.9,1.7,8.8,5.6,11.7c0.9,4.1,1.6,8.2,3.7,11.9c-0.2,2.2,0.1,4.2,2.2,5.5
	c1.1,6.1,2,12.3,4.1,18.3c1,2.9,1.1,6.4,1.3,9.3c0.3,5.3,2.3,10.3,2.1,15.7c-0.3,10.7,3,21.4,1.1,31.9c-1.3,7.4-0.3,14.8-1.9,22.1
	c-3.5,2.4-1.3,5.6-1.4,8.6c-0.2,0.4-0.5,0.8-0.7,1.2c-2.3,1.4-0.8,3.5-1,5.3c-1.4,9.5-4.4,18.6-8.1,27.3
	c-3.7,8.8-7.9,17.5-13.4,25.5c-6.1,8.8-11.8,17.7-19.6,25.1c-0.7-0.1-1,0.2-0.9,0.9c-5.2,5.6-11.1,10.1-17.7,14
	c-8.6,4.9-17.7,7.6-27.4,6.8c-5.8-0.5-11.5-2.6-16.8-5.1c-10.2-4.9-18.2-12.5-25.8-20.6c-0.1-1.5-1-2.2-2.4-2.4
	c-2.5-2.4-5-4.8-7.4-7.2c0.1-1.8-0.5-3.2-2.4-3.9c-1.7-1.7-3.5-3.4-5.2-5.1c0.4-3-1.2-3.9-3.8-3.9c-0.9-0.9-2-0.8-3.1-0.6
	c-1.2-0.3-2.6-1.7-3.4,0.6c-2.5,1.4-4.6,3.2-6.1,5.7c-3.6,5.5-8.7,9.9-11.5,16c-3.6,3.3-6.1,7.4-7.9,11.9c-0.2,0.2-0.4,0.4-0.6,0.6
	c-1.3,0.5-1.9,1.3-1.3,2.7c-0.2,0.2-0.4,0.5-0.6,0.7c0,0-0.2-0.1-0.2-0.1l0.1,0.2c-0.3,0.4-0.6,0.7-0.9,1.1
	c-1.6,0.3-1.7,1.4-1.4,2.6c-1,1.1-2.1,2.3-3.1,3.4c-1.5,0.6-1.8,1.9-2.1,3.3c-1,1-2,1.9-2.9,2.9c-1.9,0.4-2,1.9-1.9,3.4
	c-2.1,2.1-4.2,4.2-6.3,6.3c-1.8,0.3-2.9,1.4-3.2,3.2c-0.2,0.2-0.5,0.4-0.7,0.6c-1.4,0.3-2.9,0.4-3.4,2.1c-0.9,0.8-1.7,1.7-2.6,2.5
	c-0.9-0.3-1.5,0-1.8,0.9c-9.6,7.7-20.9,8.9-32.3,7c-5.9-1-12.1-3.1-17-7.3c-1-1.9-2.7-2.4-4.7-2.5c-2.8-1.2-4.1-4.2-6.6-5.8
	c-1-2.1-2.6-3.6-4.7-4.6c-4.9-4.2-7.6-10-10.6-15.5c-2-3.6-3-7.6-4.4-11.3c-2.1-5.7-4.1-11.5-5.1-17.6c-0.1-0.4,0-0.7,0-1.1
	c0.4-1.3,0.8-2.6-1-3.2c-0.2-0.4-0.3-0.9-0.5-1.3c0-0.4,0-0.7,0-1.1c0-0.6,0-1.2,0-1.8c0.3-0.7,0.2-1.2-0.7-1.1
	c-2-10.3-6.7-19.6-11.4-28.9c0.4-0.8,0.6-1.5-0.7-1.7c-0.3-0.4-0.6-0.9-0.9-1.3c0.5-0.8,0.5-1.5-0.7-1.7c-0.3-0.4-0.6-0.7-0.9-1.1
	c0,0,0.1-0.3,0.1-0.3l-0.3,0.1c-0.2-0.2-0.4-0.4-0.6-0.6c0-1.8-0.4-3.4-2.5-3.9c-2-3.5-3.3-7.5-7.1-9.7c-0.9-0.5-1.4-1.7-2-2.5
	c-0.9-2.2-2.3-3.8-4.7-4.5c-1.2-1.2-2.4-2.5-3.6-3.7c0,0,0-0.1,0-0.1l-0.2,0c-8.6-5.7-17.7-10.2-27.7-12.9c-0.4-0.1-0.8-0.5-1.2-0.8
	c-1.5-3.1-4.3-3.4-7.3-3.3c-0.2-0.2-0.5-0.5-0.7-0.7c-0.3-1.2-1-1-1.8-0.6c-0.4-0.3-0.8-0.6-1.2-0.9c-0.2-1.3-1.1-0.7-1.8-0.7
	c-2.3-2.3-5.2-3.7-7.9-5.4c-0.1-1-0.7-1.6-1.8-1.5c-0.4-0.4-0.9-0.9-1.3-1.3c-0.6-1.4-1.5-2.2-3.1-1.7c-0.2-0.2-0.4-0.4-0.7-0.6
	c0.2-0.8-0.1-1.1-0.9-0.9c-0.2-0.2-0.3-0.4-0.5-0.6c-0.2-1.3-1-2.2-2.4-2.4c-4.8-4.7-10.1-9-13.9-14.8c-1.8-2.7-4-5.3-6.2-7.8
	c-5.9-6.9-9.8-15.1-14.7-22.6c-3.5-5.4-6.2-11.3-9.2-17.1c-0.9-1.7-0.5-3.6-1.6-5.2c0.3-1,0.2-1.6-1-1.6c-0.2-0.5-0.4-0.9-0.6-1.4
	c0.5-1.3,0-2.3-0.9-3.1c-0.2-0.5-0.3-0.9-0.5-1.4c0.5-1.2,0.7-2.4-0.7-3.1c-4.3-11.6-7.3-23.5-8.3-35.8c0.4,0,0.6-0.3,0.5-0.6
	c-0.1-0.3-0.3-0.6-0.7-0.3c-0.2-0.4-0.4-0.9-0.6-1.3c0.7-4,0.2-8.1,0.3-12.1c0-0.9,0.5-2.1-1-2.3c-0.3-0.7-0.7-1.3-1-2
	c0.9-1.4,0.5-2.9,0.5-4.4c0-35.8,0-71.7,0-107.5c0-1.8,0.5-3.7-0.3-5.5c1.9-0.8,0.9-2.5,1.1-3.8c0.3-2.2-0.8-4.6,1.2-6.5
	c2.3-4.1,2.4-8.9,3.9-13.3c0.6-1.8,2.5-3.3,1.5-5.5c5.1-10.4,11.7-19.6,20.2-27.5c0.9,0.5,1.1-0.4,1.5-0.8
	c5.9-5.9,13.3-9.6,20.6-13.3c2-1,3.8-2.8,6.3-2.7c3-0.1,6.7-1.8,7.4-3.3c0.5-0.1,1-0.2,1.5-0.3c5.6,0.5,10.8-1.8,16.1-2.9
	c0.6-0.3,1.2-0.6,1.8-1c1.6,0.4,3.3,1.1,4.8-0.4c2.4-1.3,5-1.5,7.6-1.4c1.7,0.1,3.5,0.2,4.9-1.2c9.8,0.2,19.7,0.5,29.5-0.1
	c1.6,1.1,3.4,1.1,5.3,1.2c4.3,0.2,8.4,1.5,12.6,2.5c2.6,1.8,5.3,3.3,8.6,2c0.9,0.7,1.9,1.2,3.1,1c0.4,0.4,0.9,0.5,1.3,0
	c3.9,0.8,7.6,0.1,10.8-2.2c1.8,0.6,3,0,3.7-1.8c1.2-1.2,2.4-2.5,3.7-3.7c1.2,0.3,2.3,0.2,2.6-1.4c0.1-0.2,0.3-0.5,0.4-0.7
	c0.5,0.1,1,0.4,1.2-0.4c1.3-1.8,3.8-2.1,5.3-3.7c1,0.4,1.4-0.6,2.1-0.8c0.1-0.4,0.3-0.8,0.4-1.1c0.5,0.1,1,0.4,1.2-0.4
	c0.4-0.3,0.9-0.6,1.3-0.9c5.3-1.5,10.3-3.6,15.1-6.2c1.8-1.3,4-1.2,6-1.8c1.1,0,2.4,0.9,3.2-0.6c0.6-0.3,1.3-0.7,1.9-1
	c6.7,0.3,12.9-2.3,19.5-2.6c0,0,0-0.4,0.1-0.7c10.8-1.4,21.6-3.8,32.6-3.2c4.6,0.3,8.6,2.3,13.1,2.9c2.4,0.3,5.2,0.5,7.4,1.9
	c1.2,2.5,4.5,1.2,6,3.2c2.7,1.2,4.9,2.9,6.9,5.1c2,2,3.9,4,5.9,6c3.2,2.7,4.9,6.4,6.9,9.9c2.7,4.7,5.1,9.5,6.5,14.8
	c0.9,1.1-0.2,3.2,1.7,3.8c0.2,0.4,0.5,0.8,0.7,1.3c-0.6,1.5-0.3,2.9,0.6,4.2c1.9,3,2.6,6.4,3.8,9.6c1.8,4.7,2.8,9.6,5.6,13.9
	c0.7,1.2-0.1,2.9,1.2,3.9c0.8,3.6,2.1,6.9,4.5,9.8c0.9,1,0.7,2.5,1.9,3.3c-0.8,2.6,0.2,4.6,2.2,6.3c3.2,6.6,6.4,13.1,9.6,19.7
	c0.4,0.8,1.3,1.5,2,2.2c0.3,2,0.1,4.2,2.5,5.2c0.7,0.8,1.4,1.5,2.1,2.3c0.6,1.3,0.9,2.9,2.4,3.6c1.3,1.7,3.4,2.8,3.9,5
	c2.3,2.5,4.5,5,6.8,7.4c0.6,0.6,1.3,1.2,2.3,0.8c1.9,1.8,3.7,3.7,5.6,5.5C671.9,399.9,672.8,400.3,674.1,399.9z M674,406.7
	c-0.2-0.2-0.5-0.5-0.7-0.7c-1-1.7-2.2-3.2-4.5-3l-0.1-0.1c0.1-0.5-0.1-0.6-0.5-0.6l-0.2-0.2c0.1-0.9-0.6-1.2-1.3-1.6
	c-1.5-1.6-2.2-4.2-5.2-3.7c-0.8-0.7-1.6-1.5-2.5-2.2c-1.2-2.4-3.4-4-5.3-5.8c-0.4-0.7-0.8-1.5-1.3-2.2c-2.3-2.6-3.3-6.3-6.6-8
	c-4.3-7-8.6-13.9-12.9-20.9c0.3-1.3-0.1-2.4-1.2-3.2l0,0c-0.3-1.9-1-3.5-1.9-5.2c-2.2-4.3-4.4-8.6-6.1-13.1
	c-4.6-12-9.3-23.9-13.8-35.9c-5.4-14.6-12.6-27.6-24.6-37.7c-0.9-0.8-2-1.4-3-2.1c-6.9-4.7-15.1-6-22.9-6.9
	c-10-1.2-20.3-0.7-30.4,1.5c-7.1,1.6-14.2,2.7-21.3,4.2c-5.5,1.2-11,2.3-16.1,4.8c-8.3,4.2-15.2,10.4-22.5,16
	c-5.2,4-10.7,7.5-17.6,6.2c-2.4-0.5-4.9,0.3-7.2-0.5c-5.5-2-10.9-4.2-16.7-5.4c-3.3-0.7-6.7,0-9.7-1.1c-2.7-1-5.3-1.1-8-1.2
	c-6-0.3-11.9,1.5-17.9,0.9c-0.5,0-1.1,0-1.5,0.2c-4.5,3.3-10.1,1.5-15.1,3.2c-5,1.7-10.4,2.4-15.7,3.3c-4.6,0.8-8.5,3.4-13,4.7
	c-2.7,0.8-5.8,1.8-7.5,3.8c-3.3,3.8-7.9,5.8-11.6,9c-5.3,4.6-10.9,8.8-14.9,14.7c-8.5,12.6-12.5,26.5-12.3,41.7
	c0.2,11.5,0.3,23-0.1,34.5c-0.4,11,1.1,22-1.2,33.1c-1.5,7.5-0.5,15.4-1.4,23.3c-1.3,11.6-0.3,23.5-0.3,35.2c0,0.9-0.2,2.1,0.3,2.6
	c2.9,3.1,2.2,7.3,2.9,10.8c1.1,5.8,2.7,11.5,4.8,16.8c3.4,8.7,7.1,17.4,11.3,25.8c5.4,11,11.7,21.5,19.5,30.9
	c8,9.6,17.7,17.3,28.6,23.4c3,1.7,6.1,3.3,8.7,5.6c4,3.7,8.8,6.3,13.2,9.6c7.1,5.2,14.6,9.9,21.1,15.9c4.8,4.4,9.5,8.9,13.8,13.8
	c3.9,4.4,7.5,9.1,10.3,14.3c4,7.5,7,15.4,10.1,23.2c2,5.1,4,10.2,5.4,15.6c2,7.9,4.1,15.7,7.6,23.1c3.3,7,7.2,13.7,12.3,19.6
	c4.9,5.8,11.5,9.2,18.2,12.2c2.4,1.1,5.8,2.7,8.4,1.7c5.2-1.9,9.5-5.2,12.8-10.1c2.8-4.3,6.5-8,11.1-10.8
	c5.9-3.6,11.5-7.7,16.3-12.9c1.4-1.5,1.8-3.5,3.4-4.9c6.6-5.9,10.5-13.9,15.1-21.2c4-6.3,7.6-12.9,11.1-19.5
	c6.3-11.9,12.7-23.7,17.3-36.3c1.3-3.4,3.2-6.7,3.8-10.6c0.6-3.3,0.4-6.6,1.2-9.8c2.2-9.3,3.1-18.6,2.8-28.2c0-1.1-0.1-2.2-0.4-3.3
	c-1.7-5.5-3-11.1-2.5-16.9c0.1-1,0.3-2.1,1.3-2.5c1.3-0.5,2.1,0.3,3,1.1c2.4,2.2,3.8,5.2,5,8.2c2.7,6.5,5,13.1,7.7,19.6
	c3.4,8.1,7.8,15.4,13.3,22.4c4,5,7.9,9.6,13.8,12c4.8,2,9.9,3.4,14.9,5c8.3,2.6,16.2,6,22.3,12.4c3.8,3.9,7.8,7.5,11,12.1
	c3.2,4.5,7.6,8.2,11.8,12c1.5,1.4,3.5,2.5,5.7,2.4c5.8-0.1,11.3,0.4,16.8-3.8c5.1-4,9.2-8.5,12.3-13.9c5.3-9.1,9.8-18.6,12.2-29.1
	c1.2-5.2,3.7-10.7,3.7-15.8c0-11.1,2.3-21.9,1.8-33c-0.1-2.1,0.7-4.5-0.4-6.3c-1.7-2.6-1.4-5.5-0.9-8c0.7-3.2-2.5-4.5-2.4-7.4
	c0.5-10.7-3.1-20.6-6.5-30.5c-3.2-9.4-6.9-18.5-10.8-27.6c-1.3-3-2-6.7-5.2-8.7c-0.2-2.3-2.5-3.9-2.4-6.4c-0.6-4.6-2.6-8.5-5.2-12.2
	l0,0c-0.8-4.8-3.6-8.8-5.9-12.9c-0.6-1.7-1.2-3.3-1.8-5c-0.1-5.3-2.8-9.5-5.8-13.6l0,0c-1.1-5.9-4.5-10.6-7.9-15.2
	c-1-1.3-0.9-3.9-3.5-3.8c-0.4-1.7-1.6-2.6-2.9-3.4c-1.4-2.8-3.7-4.8-6.2-6.5C674.5,407.2,674.2,407,674,406.7z"/>
<polygon class="st1" points="406.5,640.7 406.6,640.6 406.6,640.8 406.4,640.8 "/>
<polygon class="st1" points="559.6,735.6 559.5,735.4 559.7,735.6 559.7,735.7 "/>
<path class="st1" d="M715.2,485.7c3.2,2,3.8,5.7,5.2,8.7c3.9,9.1,7.6,18.3,10.8,27.6c3.3,9.9,6.9,19.8,6.5,30.5
	c-0.1,2.9,3,4.2,2.4,7.4c-0.5,2.5-0.8,5.3,0.9,8c1.1,1.8,0.3,4.2,0.4,6.3c0.5,11-1.8,21.9-1.8,33c0,5.1-2.5,10.6-3.7,15.8
	c-2.4,10.5-6.9,19.9-12.2,29.1c-3.1,5.4-7.2,9.9-12.3,13.9c-5.4,4.2-11,3.8-16.8,3.8c-2.2,0-4.2-1.1-5.7-2.4
	c-4.1-3.8-8.6-7.5-11.8-12c-3.2-4.6-7.2-8.2-11-12.1c-6.2-6.3-14-9.8-22.3-12.4c-5-1.6-10.1-2.9-14.9-5c-5.8-2.4-9.8-7-13.8-12
	c-5.5-7-9.9-14.3-13.3-22.4c-2.7-6.5-5-13.1-7.7-19.6c-1.2-2.9-2.5-5.9-5-8.2c-0.8-0.8-1.7-1.6-3-1.1c-1.1,0.4-1.2,1.5-1.3,2.5
	c-0.6,5.8,0.8,11.4,2.5,16.9c0.3,1.1,0.4,2.2,0.4,3.3c0.3,9.5-0.7,18.9-2.8,28.2c-0.7,3.2-0.6,6.5-1.2,9.8
	c-0.7,3.9-2.6,7.2-3.8,10.6c-4.7,12.6-11.1,24.5-17.3,36.3c-3.5,6.6-7.1,13.3-11.1,19.5c-4.7,7.3-8.5,15.3-15.1,21.2
	c-1.6,1.4-2,3.4-3.4,4.9c-4.7,5.1-10.3,9.2-16.3,12.9c-4.5,2.8-8.2,6.5-11.1,10.8c-3.3,4.9-7.6,8.2-12.8,10.1c-2.7,1-6-0.6-8.4-1.7
	c-6.7-3-13.3-6.4-18.2-12.2c-5.1-6-8.9-12.7-12.3-19.6c-3.5-7.4-5.6-15.2-7.6-23.1c-1.4-5.3-3.4-10.5-5.4-15.6
	c-3.1-7.8-6.1-15.7-10.1-23.2c-2.8-5.2-6.4-9.9-10.3-14.3c-4.3-4.9-9-9.4-13.8-13.8c-6.5-6-14-10.7-21.1-15.9
	c-4.4-3.2-9.1-5.9-13.2-9.6c-2.6-2.4-5.7-3.9-8.7-5.6c-10.9-6.1-20.6-13.8-28.6-23.4c-7.8-9.4-14.1-19.9-19.5-30.9
	c-4.2-8.5-7.9-17.1-11.3-25.8c-2.1-5.3-3.7-11-4.8-16.8c-0.6-3.5,0.1-7.7-2.9-10.8c-0.5-0.5-0.3-1.7-0.3-2.6c0-11.7-1-23.6,0.3-35.2
	c0.9-7.8-0.1-15.7,1.4-23.3c2.3-11.1,0.8-22.1,1.2-33.1c0.4-11.5,0.2-23,0.1-34.5c-0.2-15.2,3.8-29.1,12.3-41.7
	c4-5.9,9.5-10.2,14.9-14.7c3.7-3.2,8.3-5.2,11.6-9c1.7-2,4.8-3,7.5-3.8c4.4-1.3,8.4-3.8,13-4.7c5.3-1,10.7-1.7,15.7-3.3
	c5-1.6,10.6,0.1,15.1-3.2c0.4-0.3,1-0.3,1.5-0.2c6,0.5,11.9-1.3,17.9-0.9c2.7,0.2,5.3,0.2,8,1.2c2.9,1.1,6.4,0.4,9.7,1.1
	c5.8,1.2,11.2,3.4,16.7,5.4c2.2,0.8,4.7,0.1,7.2,0.5c7,1.3,12.4-2.2,17.6-6.2c7.3-5.6,14.2-11.8,22.5-16c5.1-2.6,10.6-3.6,16.1-4.8
	c7.1-1.5,14.3-2.7,21.3-4.2c10.1-2.2,20.4-2.7,30.4-1.5c7.8,0.9,16,2.2,22.9,6.9c1,0.7,2,1.3,3,2.1c12,10.1,19.3,23.1,24.6,37.7
	c4.4,12,9.2,23.9,13.8,35.9c1.7,4.5,3.9,8.8,6.1,13.1c0.9,1.7,1.6,3.3,1.9,5.2c-1.9-0.2-2.3-1.9-2.9-3.1c-3.1-5.8-5.8-11.9-8.7-17.8
	c-2-4.1-3.5-8.4-5.3-12.5c-5.1-11.3-9.7-22.9-14.3-34.4c-3.1-7.7-8.4-13.6-15.2-17.9c-9.5-6.1-20.5-7.1-31.4-7.8
	c-4.7-0.3-9.5-0.1-14.2,0c-2.5,0-5.3-0.6-7.4,0.3c-6.4,2.5-13.2,2.6-19.7,4c-4.9,1.1-9.9,1.7-14.5,3.7
	c-10.2,4.4-18.9,10.4-23.2,21.2c-1.3,3.3-3.6,6-6.2,8.2c-2.6,2.2-5.2,2.8-8.9,1.4c-6.9-2.7-12.8-7.3-20.1-9.4
	c-7.7-2.3-15.3-4.8-23.4-4.7c-13.3,0.2-26.6-0.6-39.8,2.2c-4.9,1-9.8,1.9-14.3,4.5c-1.7,1-3.5,1.7-5.6,1.7c-2,0-3.9,1.1-5.3,2.5
	c-2.3,2.1-4.7,4-7.3,5.8c-4.4,3.2-3.7,8.1,1.2,10.5c2,1,4,2,6,3c6.6,3.4,13.4,6.3,18.9,11.6c3,2.9,5.2,6.5,8.3,9c2.6,2.1,5,4,6.5,7
	c6,11.8,12.4,23.5,15.5,36.5c2.5,10.3,6.7,20.1,10.5,29.9c4.4,11.5,8.2,23.3,13.6,34.5c3.1,6.4,5.9,13,9.7,18.9c1.8,2.8,3,5.9,5,8.6
	c2.8,3.6,5.2,7.4,8.2,10.8c3.4,3.8,6.2,8,9.2,12.1c3,4.2,6.6,7.6,10.1,11.3c0.8,0.9,1.5,2.1,0.9,3.4c-3.8-2.2-7-4.9-10.2-7.9
	c-5.3-5-9.5-10.8-14.1-16.4c-4.6-5.7-8.5-11.7-11.7-18.1c-8-15.8-16.4-31.5-23.5-47.8c-2.4-5.5-4.9-11-7.3-16.6
	c-1.1-2.7-2.7-5.3-3.4-8c-1.5-6.1-4.6-11.3-6.8-17.1c-2.7-7.1-6.7-13.7-9.4-20.8c-2.5-6.6-6.4-12.5-13.4-15.1
	c-7.1-2.7-14.5-1.8-21.5,0.2c-4.9,1.4-5.3,5.2-1.6,8.6c3.7,3.6,9,4.5,13,7.7c4.1,3.3,7.8,6.9,9,11.9c1.1,4.5,3.7,8.3,4.3,12.8
	c0.4,3.1,2.3,5.5,2.7,8.6c1.1,8.6,0.9,17.1,0.9,25.7c0,0.7,0.1,1.5,0.3,2.2c2.2,5.7,2.5,11.9,4,17.8c0.5,2.2,2,4.2,1.7,6.7
	c-0.8,7.9,0.7,15.4,3.1,22.9c2.4,7.4,7.5,12.8,13.3,17.4c5.4,4.3,11,8.2,16.3,12.7c5,4.3,9.5,9.3,14.9,13
	c11,7.4,21.7,14.9,31.3,24.1c8.6,8.3,15.6,17.5,21.3,27.9c5.1,9.4,9.3,19.3,13.2,29.2c2.4,6.2,5.9,11.9,8,18.2
	c1.1,3.2,2.3,5,5.6,4.3c3-0.6,4.5-2.6,4.6-5.8c0.2-7-3.4-12.9-5.3-19.3c-1.5-5.2-3.7-10.3-5.2-15.5c-1.3-4.7-2-9.6-4.1-14
	c-2-4.2-3.7-8.5-6.3-12.5c-3.7-5.8-6.1-12.5-9.8-18.5c-1.5-2.4-3.6-4.4-4-7.4c3.2,1.7,5,4.8,7.3,7.5c6,7.4,10.4,15.7,14.6,24.1
	c3,6.2,5.9,12.5,7.5,19.5c1.1,4.7,4.3,8.8,6.3,13.3c4,9.3,5.7,19.3,9.7,28.5c1.8,4.1,1.8,8.6,3.4,12.8c2.3,5.9,4.7,11.9,6.2,18
	c1.4,6.1,3.2,11.9,6,17.4c3.5,6.8,10.8,7.6,15.4,2.1c3.6-4.3,6.2-9.2,8.7-14c4.6-9,7.9-18.7,11.9-28c4.7-11,7-22.2,6.9-34
	c0-4.7-0.3-9.5,0.1-14.2c0.3-3.8-0.7-7.5-2-10.4c-4.5-9.7-7.5-20-13.4-29.1c-6.8-10.4-11.5-22.2-21.7-30.1c-0.7-0.6-0.9-1.7-0.7-2.8
	c4.9,2.4,8.8,6.1,13,9.4c1.8,1.4,2,4,3.9,5.4c5.7,4.4,9,10.7,12.9,16.4c1.6,2.3,3.1,5.1,6.5,5c3.3,0,5.2-2.1,6.1-5.1
	c1.7-5.3,3.7-10.6,4.8-16.1c0.7-3.4,0.5-7.1-2-10.3c-6.2-7.8-15.1-10-24-12.5c-4.6-1.3-9.2-0.4-13.8-2c-6.9-2.4-11,0.8-10.4,6.7
	c-3.6-0.3-6-2.6-7.6-5.4c-3.9-6.6-1.4-10.7,6.3-10.6c3.5,0,6.7-1.3,10-2.2c6.1-1.6,12.3-1.4,18.1-0.3c4.3,0.8,8.7,0.7,13,2.3
	c2.5,0.9,4.8,1.5,6.8,3.4c4.7,4.4,8.1,9.7,10.9,15.4c2.2,4.6,3.2,9.6,1.9,14.4c-1.5,5.5-2.1,11.1-2.6,16.6c-0.9,10,1,19.9,4.6,29.3
	c1.4,3.7,1.7,7.9,3.6,11.2c1.8,3.2,3.7,6.4,5.6,9.6c6,9.7,12.4,18.9,20.2,27.2c6.1,6.5,14,8.2,22.1,9.4c6.9,1.1,14,0.6,21,1.2
	c11.6,0.9,23.6,2.1,35.2-1.2c5.9-1.7,10.6-5.8,13.2-11.2c2.2-4.6,3.5-9.6,5.8-14.3c4.2-8.5,5.3-17.8,6.3-27c0.5-4.8-1-9.8-0.3-14.5
	c0.7-4.8-0.8-9.1-1.5-13.4c-1.1-5.9-2.1-11.9-3.8-17.8c-1.4-4.9-3.1-9.8-5-14.2C720.2,498.9,718.2,492.1,715.2,485.7z M450.3,683.9
	c0.2,0.3,0.4,0.5,0.6,0.8c-1,3.5-1.5,7.4-0.3,10.6c2,5.3,3.4,11,7.2,15.6c3,8.1,9.7,13.1,15.5,18.9c4.6,4.5,9.7,4,14.4-0.2
	c2.5-2.2,2.9-4.9,3.6-7.8c1-4.5,2.2-8.9,2.7-13.6c0.7-6.9-2.1-13.5-1.6-20.3c0.3-3.7-1.2-6.9-2.5-10.2c-3.4-8.5-9.1-15.5-14.5-22.6
	c-4.4-5.9-2.3-12.7-4.7-18.7c-0.2-0.4,0.3-1.2,0.6-1.7c0.7-1.3,1-2.6,0.8-4c-0.4-3,0.8-5.5,1.9-8.2c2.2-5.2,4.1-10.4,4.1-16.2
	c0-2.6-2.1-4.7-1.6-7.6c0.7-3.7-1.4-6.9-2.2-10.4c-1.4-5.9-5.4-10.4-8.7-15.4c-3.8-5.8-8.1-11.1-14.9-13.5c-3.1-1.1-6.2-2.2-9.4-3.2
	c-4.7-1.5-9.5-2.9-14.3-4.3c-4.1-1.2-8.4-1.4-12.2-3.7c-3-1.8-6.3-3.2-9.1-5.4c-4-3.2-8.9-4.9-12.9-8.2c-4.1-3.4-8.5-6.3-13.1-8.9
	c-6.4-3.7-11.2-9.1-16.1-14.4c-5.6-6.2-9.1-14-13.5-21c-6-9.5-10-20.1-14.4-30.4c-1.6-3.7-2.6-7.9-2.5-11.8c0.3-13.3-1.4-26.7,1-40
	c0.6-3.1-1.5-5.7-4.8-7.1c-2.8-1.2-3.9,0.7-5.4,2.1c-4,3.7-4.3,8.7-4.4,13.6c0,3.9,0.3,7.6-0.7,11.6c-1.5,6.6-3,13-5.8,19.2
	c-2.2,5.1-4.4,10.5-3.6,16.4c0.6,4.4,1.7,8.6,1.7,13.2c0,6.9-0.7,13.7,1.1,20.7c1.7,6.8,3,13.6,5.8,20.1c3.6,8.4,7.8,16.5,12.7,24.3
	c3.6,5.7,6.6,11.9,11.4,16.8c3.7,3.7,8,6.6,12.1,9.7c7.7,5.9,15.8,11.3,23.6,17c8.5,6.3,15.7,13.9,24.2,20.1
	c3.4,2.5,4.9,6.6,7.9,9.3c2.9,2.6,5.1,5.9,7,9c3.6,5.6,7.8,10.9,12.1,15.8c8,9,14.6,18.6,18.3,30.1c0.6,1.9-0.9,4.5,1.9,5.6
	c0,0.7,0,1.5,0,2.2C449.7,679.9,448.8,682.1,450.3,683.9L450.3,683.9z"/>
<path class="st2" d="M657.8,393.9c0.8,0.7,1.6,1.5,2.4,2.2c1.3,1.2,2.5,2.5,3.8,3.7c0.4,0.3,0.8,0.6,1.1,0.8c0.5,0.3,1,0.5,1.5,0.8
	c0,0,0.2,0.2,0.2,0.2c0.2,0.2,0.3,0.4,0.5,0.6c0,0,0.1,0.1,0.1,0.1c-0.1,0.1-0.2,0.3-0.2,0.5c0.1,0.2,0.2,0.5,0.3,0.7
	c0,0,0.1,0.1,0.1,0.1c0.9,2.8,2.5,4.9,5.9,4.5l0.1,0.1c0.2,0.2,0.4,0.4,0.6,0.6l0.1,0.1c0.2,0.2,0.4,0.4,0.6,0.6
	c0.8,0.8,1.6,1.6,2.4,2.3c0.2,0.2,0.4,0.4,0.6,0.7l0.1,0.1c0.2,0.2,0.4,0.4,0.6,0.7l0.1,0.1c-0.3,2.8,1.1,4.5,3.7,5.2l0.1,0
	c0.2,0.2,0.4,0.5,0.7,0.7c0.1,0.2,0.1,0.4,0.2,0.7c1.4,5,3.6,9.6,6.1,14.1c1.3,2.3,2.7,4.5,3.5,6.9c1.6,5,3.5,10,5.5,14.8
	c3.7,8.7,6.7,17.5,10.1,26.3c1.8,4.7,3.6,9.4,5.8,14c2.9,6,5.7,11.9,6.7,18.6c0.3,2.5-0.2,5.3,1,7.3c2.1,3.8,1.8,7.9,2.5,11.8
	c0.8,4.9,0.2,10,0.2,15c0,4-1.7,7.8-3.3,11c-3.3,6.5-7.1,12.9-12.7,18c-3.1,2.8-5.8,6.7-9.4,8.4c-8.1,3.7-16,7.8-25.1,9.1
	c-6.1,0.9-12.6,1.6-18.5,4c-1.1,0.4-2.6,0.3-3.7-0.1c-4.9-1.7-9.5-3.8-13.1-8c-4-4.6-9-8.3-12.6-13.3c-3.3-4.6-6.6-9.2-9.9-13.8
	c-3.2-4.4-7.8-8.1-6.3-14.5c0.2-0.9-0.5-1.6-0.7-2.4c-1.3-4-1.2-8.2-0.2-12.1c1-4.2,2.7-8.1,2.5-12.6c-0.2-4.7,0-9.5-0.1-14.2
	c0-1.7,0.3-3.7-0.4-5.2c-3.9-8-8.6-15.6-14.1-22.5c-3.8-4.8-8.3-9-12.9-13c-4.4-3.8-9.5-6.5-15.7-6.2c-3.5,0.2-7.2,0.6-10.4-0.4
	c-5.7-1.9-11.7-2.3-17.1-5.3c-2.8-1.5-4.7-3.1-6.2-5.9c-1.8-3.5-3.1-7.2-4.7-10.7c-2.1-4.6-4.4-9.2-4.6-14.2
	c-0.5-8.9,0.4-17.9-2.2-26.7c-2-6.8-4.3-13.3-7.5-19.6c-2.8-5.5-5.8-11-8.2-16.7c-2.1-4.7-3.6-9.7-5.8-14.4
	c-3.4-7.4-8.9-13.6-9.8-22.4c-0.8-7.5-2.4-15-3.4-22.5c-0.3-2.2-0.5-4.4,0.5-6.5c2.7-5.6,6.6-9.9,11.9-13.3c6.1-4,12.3-6.6,19.6-6.5
	c4.9,0.1,9.7,1.5,14.6,1.9c2.7,0.2,5.8,0.7,8.6,1.5c4.9,1.4,9.8,3.2,14.8,4c10.4,1.6,18.9,6.8,26.7,13.4c4.5,3.8,7.2,9,10.2,13.8
	c6.3,9.9,10.8,20.8,17.1,30.7c5.8,9.2,11.6,18.2,18.3,26.7c2.5,3.1,5.4,5.9,7.4,9.2c3,4.8,7.1,8.2,12.1,10.5
	c0.3,0.3,0.5,0.5,0.8,0.8c0.2,0.2,0.5,0.5,0.7,0.7c1.1,1.2,2.8,1.8,3.2,3.6c-0.2,1.5,0.6,1.2,1.4,0.7
	C656.9,393.7,657.4,393.8,657.8,393.9z M563.8,340.3l-0.1-0.1c-0.3-0.4-0.6-0.9-1-1.1c-6.9-2.9-13.9-1.6-21-0.8
	c-4.8,2.2-9.5,4.5-10.6,10.4c-1.8,0.3-1.9,1.6-1.9,3.1c-0.3,5,2.5,9.2,3.8,13.7c0.8,2.8,0.9,6.1,3.5,8.2c0.5,0.7,0.4,1.8,0.8,2.4
	c1.4,2.5,0.4,6.3,3.8,7.8c2.6,2.3,7.1,1.9,8.7-0.8c1.6-0.3,2.9-1.7,4.7-1.6c5.1-0.6,10.2-2,15.1,1.1c2.6,1.6,7-0.1,7.2-3
	c0.8-8.6-0.2-16.8-5.3-24.2c-1-2-2-4.1-2.9-6.1C567.9,346,567.1,342.5,563.8,340.3z M683.6,459.6L683.6,459.6
	c-0.3-1.8-0.6-3.6-0.9-5.4c-1.2-7.4-4.6-13.9-8.8-20c-1.9-4.4-4.2-8.6-7.8-12.1c-3.6-3.5-7.5-6.8-11.5-9.7
	c-3.6-2.6-7.4-5.1-11.7-6.6c-2.8-4-7.3-4.3-11.6-5.3c-0.5-0.6-1.2-0.7-1.9-0.6c-0.2-1.7-1.2-2.2-2.8-2.2c-3.7,0.1-7.5,0-11.2,0
	c-1,0-2.1,0-2.3,1.3c-0.5,0.4-1,0.8-1.5,1.1c-3.2,1.1-5.7,2.9-6.7,6.4c-2.9,4.4-4.1,9.5-6.2,14.2c-2.9,2.7-3.8,6.5-5.7,9.8
	c-2.5,4.3-5.1,8.5-7.6,12.8c-1.1,2.4-2,4.8,0.5,6.9c2.6,4.9,6.4,8.4,12,9.5c-0.7,0-1.4-0.3-2.1,0.3c1.3,0.3,2.5,0.7,3.8,1
	c5.6,2.9,11.1,6,16,9.9c3.7,3,7.6,6,9,11.3c0.8,2.9,1.5,6.1,3.4,8.7c4.9,6.6,8.3,13.9,9.7,22.1c-0.5,2.1,0.6,3.3,2.4,4.1
	c1.5,1.3-0.1,3.6,1.4,4.9c-0.5,2.8,1.9,5,1.6,7.9c-0.7,7.8,6.1,12.4,8.1,19c0,0.1,0.4,0.2,0.7,0.2l0,0c0,0.7,0.3,1.2,1,1.3
	c2.9,4.9,5.4,10.1,8.8,14.6c5.8,7.5,11.1,8.1,19.6,3.7c4.5-2.3,8.9-4.7,13-7.7c0.1,0.2-0.1,0.7,0.4,0.5c-0.1-0.2-0.2-0.4-0.4-0.5
	c0.3-0.3,0.7-0.5,1-0.8c4.8-2.8,8.2-6.9,11.4-11.2c6.3-8.5,3.2-17.7,1.9-26.8c0-0.2-0.6-0.3-1-0.5c0.8-4.6-1.6-8.8-1.8-13.3
	c-1.2-5.4-3.2-10.4-7.2-14.4c-3.5-5.3-4.6-11.6-7.8-17c0.2-2.5-1-4.3-2.9-5.8c-0.6-3.8-3.5-6.8-3.8-10.8
	C683.9,460.2,683.7,459.9,683.6,459.6z"/>
<path class="st3" d="M650.5,387.8c-5.1-2.3-9.1-5.7-12.1-10.5c-2.1-3.3-5-6.1-7.4-9.2c-6.7-8.5-12.5-17.5-18.3-26.7
	c-6.3-10-10.8-20.8-17.1-30.7c-3-4.8-5.7-10.1-10.2-13.8c-7.8-6.5-16.3-11.8-26.7-13.4c-5-0.8-9.9-2.6-14.8-4
	c-2.8-0.8-5.9-1.3-8.6-1.5c-4.9-0.4-9.7-1.8-14.6-1.9c-7.3-0.1-13.5,2.5-19.6,6.5c-5.3,3.5-9.2,7.7-11.9,13.3
	c-1,2.2-0.8,4.3-0.5,6.5c0.9,7.5,2.5,15,3.4,22.5c1,8.8,6.4,15,9.8,22.4c2.2,4.7,3.7,9.6,5.8,14.4c2.5,5.7,5.4,11.1,8.2,16.7
	c3.2,6.2,5.5,12.8,7.5,19.6c2.6,8.9,1.8,17.8,2.2,26.7c0.3,5,2.5,9.6,4.6,14.2c1.6,3.5,2.9,7.2,4.7,10.7c1.4,2.8,3.4,4.3,6.2,5.9
	c5.4,3,11.4,3.4,17.1,5.3c3.2,1,6.9,0.6,10.4,0.4c6.2-0.3,11.3,2.4,15.7,6.2c4.6,4,9.2,8.2,12.9,13c5.5,7,10.1,14.6,14.1,22.5
	c0.7,1.4,0.4,3.4,0.4,5.2c0,4.7-0.2,9.5,0.1,14.2c0.2,4.5-1.5,8.4-2.5,12.6c-1,4-1.1,8.1,0.2,12.1c0.3,0.8,0.9,1.6,0.7,2.4
	c-1.4,6.4,3.1,10.2,6.3,14.5c3.4,4.6,6.6,9.2,9.9,13.8c3.6,5,8.6,8.7,12.6,13.3c3.5,4.1,8.2,6.3,13.1,8c1.1,0.4,2.6,0.5,3.7,0.1
	c6-2.4,12.4-3.1,18.5-4c9.2-1.3,17.1-5.4,25.1-9.1c3.7-1.7,6.3-5.6,9.4-8.4c5.6-5,9.4-11.5,12.7-18c1.6-3.2,3.3-7,3.3-11
	c0-5,0.6-10.1-0.2-15c-0.6-3.9-0.3-8-2.5-11.8c-1.2-2-0.6-4.9-1-7.3c-0.9-6.7-3.8-12.7-6.7-18.6c-2.2-4.5-3.9-9.3-5.8-14
	c-3.4-8.7-6.4-17.6-10.1-26.3c-2-4.8-3.9-9.7-5.5-14.8c-0.8-2.4-2.2-4.7-3.5-6.9c-2.5-4.5-4.8-9.1-6.1-14.1c3,1.9,4,5.2,5.9,7.8
	c1.8,2.5,2.2,5.8,4.6,7.9c0,0,0,0,0,0c1.2,4.8,3,9.4,5.8,13.6c0.6,1.7,1.2,3.3,1.8,5c-0.2,5.3,2.3,9.4,5.9,12.9c0,0,0,0,0,0
	c-0.1,4.9,3.2,8.3,5.2,12.2c-0.1,2.5,2.2,4,2.4,6.4c3,6.4,5,13.2,7.8,19.7c1.9,4.5,3.6,9.4,5,14.2c1.7,5.9,2.7,11.9,3.8,17.8
	c0.8,4.3,2.2,8.6,1.5,13.4c-0.7,4.7,0.8,9.7,0.3,14.5c-0.9,9.2-2.1,18.5-6.3,27c-2.3,4.6-3.6,9.7-5.8,14.3
	c-2.6,5.4-7.3,9.5-13.2,11.2c-11.6,3.3-23.6,2.1-35.2,1.2c-7-0.6-14.1-0.1-21-1.2c-8.1-1.2-16-3-22.1-9.4
	c-7.8-8.3-14.3-17.5-20.2-27.2c-1.9-3.1-3.7-6.4-5.6-9.6c-1.9-3.3-2.2-7.5-3.6-11.2c-3.6-9.4-5.5-19.2-4.6-29.3
	c0.5-5.5,1.1-11.1,2.6-16.6c1.3-4.9,0.3-9.9-1.9-14.4c-2.7-5.7-6.2-11-10.9-15.4c-2-1.9-4.4-2.5-6.8-3.4c-4.2-1.6-8.7-1.5-13-2.3
	c-5.8-1.1-12-1.3-18.1,0.3c-3.3,0.9-6.5,2.2-10,2.2c-7.7,0-10.2,4-6.3,10.6c1.6,2.8,3.9,5.2,7.6,5.4l0,0.1c0.4,1.6,0.1,3.9,3,2.9
	l0.2,0c-0.2,1.1,0,2.2,0.7,2.8c10.2,8,14.9,19.8,21.7,30.1c6,9.1,8.9,19.4,13.4,29.1c1.4,2.9,2.4,6.6,2,10.4
	c-0.4,4.7-0.1,9.5-0.1,14.2c0,11.8-2.2,23-6.9,34c-4,9.3-7.2,19-11.9,28c-2.5,4.9-5.1,9.7-8.7,14c-4.6,5.5-11.9,4.6-15.4-2.1
	c-2.9-5.5-4.6-11.3-6-17.4c-1.4-6.2-3.9-12.1-6.2-18c-1.6-4.2-1.6-8.7-3.4-12.8c-4-9.2-5.6-19.2-9.7-28.5c-2-4.5-5.2-8.6-6.3-13.3
	c-1.6-6.9-4.5-13.3-7.5-19.5c-4.1-8.4-8.6-16.7-14.6-24.1c-2.2-2.8-4-5.8-7.3-7.5l0-0.1c0.2-3.3-2.4-4.4-4.5-6l0,0
	c0-0.5-0.2-0.8-0.7-0.7l-0.1-0.1c0.1-0.5-0.2-0.8-0.7-0.7l0,0c0.1-0.5-0.2-0.8-0.7-0.7l-0.1-0.1c0.1-0.5-0.1-0.8-0.7-0.7l-0.1-0.1
	c0.1-0.5-0.1-0.8-0.7-0.7l-0.1-0.1c0.1-0.5-0.2-0.8-0.7-0.7l-0.1-0.1c0.1-0.5-0.1-0.8-0.7-0.7l-0.2,0c0.6-1.4,0-2.5-0.9-3.4
	c-3.5-3.7-7.1-7.2-10.1-11.3c-2.9-4.1-5.8-8.3-9.2-12.1c-3-3.4-5.5-7.2-8.2-10.8c-2.1-2.7-3.2-5.8-5-8.6c-3.9-5.9-6.7-12.5-9.7-18.9
	c-5.4-11.2-9.1-23-13.6-34.5c-3.8-9.8-8-19.5-10.5-29.9c-3.2-13-9.6-24.7-15.5-36.5c-1.5-3-3.9-4.9-6.5-7c-3.1-2.6-5.4-6.1-8.3-9
	c-5.5-5.3-12.3-8.3-18.9-11.6c-2-1-4-2-6-3c-4.9-2.5-5.6-7.3-1.2-10.5c2.5-1.8,5-3.7,7.3-5.8c1.4-1.3,3.3-2.5,5.3-2.5
	c2.1,0,3.9-0.8,5.6-1.7c4.4-2.5,9.3-3.4,14.3-4.5c13.2-2.8,26.5-2,39.8-2.2c8.1-0.1,15.7,2.4,23.4,4.7c7.2,2.1,13.1,6.7,20.1,9.4
	c3.6,1.4,6.2,0.7,8.9-1.4c2.7-2.2,4.9-4.9,6.2-8.2c4.3-10.8,13.1-16.8,23.2-21.2c4.6-2,9.6-2.6,14.5-3.7c6.5-1.4,13.3-1.5,19.7-4
	c2.2-0.8,4.9-0.2,7.4-0.3c4.7,0,9.5-0.3,14.2,0c10.9,0.7,21.9,1.7,31.4,7.8c6.8,4.3,12.1,10.2,15.2,17.9
	c4.7,11.5,9.2,23.1,14.3,34.4c1.9,4.1,3.3,8.4,5.3,12.5c2.9,5.9,5.6,12,8.7,17.8c0.6,1.2,1.1,2.9,2.9,3.1c0,0,0,0,0,0
	c-0.2,1.3,0.2,2.3,1.2,3.2c4.3,7,8.6,13.9,12.9,20.9C645.4,381.9,649.3,384,650.5,387.8z M568.5,574.1c0-3.7,0.7-7.7-0.2-11.2
	c-1.5-5.7-3.8-11.1-6.6-16.3c-1.1-2-1.4-4.6-2.7-6.4c-3.3-4.5-5.7-9.5-8.9-14.2c-4.5-6.5-9-12.9-14-19.1c-3.8-4.7-7.4-9.6-10.8-14.5
	c-4.2-6.1-8.3-12.2-13.3-17.6c-5.3-5.7-10.7-11.4-15.1-17.8c-3.2-4.7-5.8-9.7-8.6-14.6c-1.8-3.1-4.3-6-4.3-9.8
	c-0.1-7.4,0-14.7,0-22.1c0-1.8,0.7-3.4,1.4-5c1.9-4.5,4.7-9.1,5.1-13.7c0.5-7.3,1.7-14.9-1.3-22.1c-1.6-4-1.4-8.7-3.9-12.3
	c-2.9-4.2-4.6-9-7.1-13.4c-3.4-5.8-6.1-12.2-11.4-16.2c-5.2-4-10.3-8.7-17.4-10.1c-5.1-1-9-5-13.6-7.3c-5.8-2.9-11.3-6.2-18.2-7.4
	c-5.8-1-11.4-3.1-17.5-3c-5.5,0.1-11-0.5-16.4,0.7c-4.3,1-8.7,6.2-7.6,9.9c0.9,3,2,6.1,3.9,8.7c3.4,4.6,5.7,9.8,8.2,14.9
	c2.8,5.9,4.9,12.1,7.5,18c2.6,6,5.3,12,7.5,18.1c1.4,3.7,2.1,7.6,3.3,11.2c3,8.7,6,17.3,8.5,26.2c0.9,3.3,1.6,7,3.3,9.8
	c1.9,3.2,2.8,6.7,3.9,10c1.8,5.6,3.9,11.1,6.4,16.4c3.6,7.8,7,15.8,11.9,22.9c4,5.8,7.5,11.9,12.2,17.3c2.9,3.3,5.4,7,8.2,10.5
	c2.5,3.1,4.8,6.6,7.4,9.2c3.6,3.6,6.4,7.9,9.8,11.6c2.4,2.6,4.6,5.4,6.8,8.2c4,5.1,7.3,10.7,11.5,15.6c3.9,4.5,7.3,9.4,9.3,14.8
	c2.6,7.1,6.3,13.6,8.9,20.6c2,5.6,5.7,10.5,7.6,16.3c3.1,9.2,9,17,13.3,25.6c1,1.9,2.4,3.5,4,4.9c2.8,2.4,6.9,1.9,10.1,0.4
	c3.8-1.8,4.5-5.3,6.5-8.1c5.3-7.4,7.8-15.9,10.9-24.2C569.1,584.5,568.8,579.3,568.5,574.1z M493.7,436.9c0.7,3.9,2.6,7.7,4.3,11.6
	c3.1,7.2,9.3,11.8,14.1,17.7c0.6,0.7,1.3,1.2,2.3,0.8c1-0.5,1.9-1.3,1.8-2.6c-0.1-1.1-0.4-2.2-0.8-3.3c-2.7-7.8-7.3-15-7.5-23.6
	c0-1.1-0.7-2.5-1.6-3.3c-2.3-2-3.7-5.9-7.8-4.3C495.7,431,493.9,433.3,493.7,436.9z"/>
<path class="st1" d="M694,435.7c-2.4-2.1-2.7-5.5-4.6-7.9c-2-2.6-3-6-5.9-7.8c-0.1-0.2-0.1-0.4-0.2-0.7c-0.2-0.2-0.4-0.5-0.7-0.7
	c0,0-0.1,0-0.1,0c0-0.6,0-1.3,0-1.9c2.5,0,2.5,2.5,3.5,3.8C689.5,425.1,692.9,429.9,694,435.7z"/>
<path class="st1" d="M699.8,449.3c-2.8-4.2-4.6-8.7-5.8-13.6C697,439.8,699.8,444,699.8,449.3z"/>
<path class="st1" d="M707.6,467.2c-3.6-3.5-6.2-7.6-5.9-12.9C704,458.4,706.8,462.3,707.6,467.2z"/>
<path class="st1" d="M712.8,479.4c-2-4-5.3-7.4-5.2-12.2C710.2,470.9,712.2,474.8,712.8,479.4z"/>
<path class="st1" d="M650.5,387.8c-1.1-3.8-5.1-5.9-5.9-9.8c3.3,1.8,4.3,5.5,6.6,8c0.6,0.6,0.9,1.4,1.3,2.2
	c-0.2,0.1-0.4,0.3-0.5,0.4c-0.2,0-0.5,0-0.7,0C651,388.3,650.7,388,650.5,387.8z"/>
<path class="st3" d="M682.6,416.7c0,0.6,0,1.3,0,1.9c-2.7-0.7-4-2.4-3.7-5.2c0.3,0,0.5-0.1,0.8-0.1C681,414.1,682.2,415,682.6,416.7
	z"/>
<path class="st1" d="M679.7,413.3c-0.3,0-0.5,0.1-0.8,0.1c0,0-0.1-0.1-0.1-0.1c-0.2-0.2-0.4-0.4-0.6-0.7c0,0-0.1-0.1-0.1-0.1
	c-0.2-0.2-0.4-0.4-0.6-0.7c-0.8-0.8-1.6-1.6-2.4-2.3c-0.2-0.2-0.4-0.4-0.7-0.6c0,0-0.1-0.1-0.1-0.1c-0.2-0.2-0.4-0.4-0.7-0.6
	c0,0-0.1-0.1-0.1-0.1c-0.1-0.4-0.1-0.9-0.2-1.3l0.1-0.1C676,408.5,678.3,410.5,679.7,413.3z"/>
<path class="st1" d="M657.8,393.9c-0.4-0.1-0.8-0.2-1.2-0.2c-0.5-0.2-0.9-0.5-1.4-0.7c-0.4-1.8-2.1-2.5-3.2-3.6c0-0.2,0-0.5,0-0.7
	c0.1-0.2,0.3-0.3,0.5-0.4C654.4,389.9,656.5,391.5,657.8,393.9z"/>
<path class="st1" d="M664,399.8c-1.3-1.2-2.5-2.5-3.8-3.7c3-0.5,3.7,2.1,5.2,3.7c0,0-0.2,0.2-0.2,0.2
	C664.8,400,664.4,399.9,664,399.8z"/>
<path class="st1" d="M667.4,402.8c0-0.2,0-0.4,0.2-0.5c2.3-0.2,3.5,1.3,4.5,3l-0.1,0.1c-1.5-0.5-2.6-1.9-4.3-1.8
	c0,0-0.1-0.1-0.1-0.1C667.5,403.3,667.4,403.1,667.4,402.8z"/>
<path class="st1" d="M631.7,357c-1-0.8-1.5-1.8-1.2-3.2C631.6,354.6,632,355.7,631.7,357z"/>
<path class="st1" d="M666.7,401.4c-0.5-0.3-1-0.5-1.5-0.8c0.1-0.2,0.1-0.4,0-0.6c0,0,0.2-0.2,0.2-0.2
	C666.1,400.2,666.8,400.5,666.7,401.4z"/>
<path class="st1" d="M672.7,406c0.2,0.2,0.5,0.5,0.7,0.7c0,0-0.1,0.1-0.1,0.1C673.1,406.5,672.9,406.3,672.7,406L672.7,406z"/>
<path class="st1" d="M672,405.3c0.2,0.2,0.5,0.5,0.7,0.7c0,0,0,0,0,0C672.5,405.8,672.2,405.6,672,405.3L672,405.3z"/>
<path class="st1" d="M667.4,402.2c-0.2-0.2-0.3-0.4-0.5-0.6C667.3,401.5,667.5,401.7,667.4,402.2z"/>
<path class="st3" d="M449.7,675.7c-2.8-1.1-1.3-3.7-1.9-5.6c-3.7-11.5-10.3-21.1-18.3-30.1c-4.3-4.9-8.5-10.2-12.1-15.8
	c-2-3.1-4.2-6.4-7-9c-3-2.8-4.5-6.8-7.9-9.3c-8.5-6.2-15.7-13.9-24.2-20.1c-7.8-5.8-15.9-11.1-23.6-17c-4.1-3.2-8.4-6-12.1-9.7
	c-4.8-4.9-7.8-11-11.4-16.8c-4.9-7.8-9.1-15.9-12.7-24.3c-2.7-6.4-4.1-13.3-5.8-20.1c-1.7-7-1.1-13.8-1.1-20.7
	c0-4.5-1.1-8.8-1.7-13.2c-0.8-6,1.3-11.3,3.6-16.4c2.7-6.2,4.3-12.6,5.8-19.2c0.9-4,0.6-7.7,0.7-11.6c0.1-4.8,0.3-9.9,4.4-13.6
	c1.5-1.4,2.6-3.3,5.4-2.1c3.3,1.4,5.3,4.1,4.8,7.1c-2.4,13.3-0.8,26.6-1,40c-0.1,3.9,1,8.2,2.5,11.8c4.4,10.3,8.4,20.9,14.4,30.4
	c4.4,7,7.9,14.8,13.5,21c4.8,5.3,9.7,10.6,16.1,14.4c4.5,2.7,9,5.5,13.1,8.9c3.9,3.2,8.9,4.9,12.9,8.2c2.8,2.2,6.1,3.6,9.1,5.4
	c3.8,2.3,8.1,2.5,12.2,3.7c4.8,1.4,9.5,2.8,14.3,4.3c3.1,1,6.2,2.1,9.4,3.2c6.8,2.4,11.1,7.7,14.9,13.5c3.2,4.9,7.3,9.4,8.7,15.4
	c0.8,3.4,2.8,6.7,2.2,10.4c-0.5,2.8,1.6,4.9,1.6,7.6c0,5.7-1.9,11-4.1,16.2c-1.1,2.7-2.4,5.2-1.9,8.2c0.2,1.4-0.1,2.7-0.8,4
	c-0.3,0.5-0.7,1.3-0.6,1.7c2.4,6,0.2,12.8,4.7,18.7c5.4,7.1,11.1,14.2,14.5,22.6c1.3,3.3,2.8,6.5,2.5,10.2
	c-0.5,6.8,2.3,13.4,1.6,20.3c-0.5,4.7-1.7,9.1-2.7,13.6c-0.6,3-1.1,5.6-3.6,7.8c-4.7,4.3-9.8,4.7-14.4,0.2
	c-5.8-5.7-12.5-10.8-15.5-18.9c2.3,0.2,4.2,1.4,6.2,2.4c2.7,1.5,6.8,0.7,7.7-1.3c2.6-6.4,2.5-13.3,1.4-19.8
	c-0.9-5.3-1.8-10.9-4.1-16c-1.9-4.3-2.8-9-4.9-13.2c-3.8-7.5-6.5-15.4-11-22.5c-2.3-3.7-5.3-6.5-8.4-9.2c-2-1.7-4.1-0.2-4.1,2.5
	c0,0.9,0.2,1.7,0.7,2.5c5.1,8.9,8.3,18.3,8.4,28.7c0,0.8,0.6,1.6,0.8,2.4C451.1,670.2,452,673.1,449.7,675.7z M327,509.3
	c1.3,4.6,2.5,9.2,4,13.7c1.1,3.4,2.1,7,4,9.9c4,5.9,8.5,11.4,13.6,16.5c5.1,5.2,10.6,9.8,16.7,13.4c7.9,4.7,16,9.1,24.6,12.6
	c3.4,1.4,4.3-1.3,5.8-2.6c1.6-1.3-0.4-2.6-1.3-3.6c-7.2-8.3-16.7-14.2-23.9-22.4c-0.2-0.3-0.6-0.5-0.9-0.7
	c-7.6-4.6-13-11.6-17.9-18.7c-4-5.8-7-12.4-10.7-18.5c-1.2-2-2.4-4-4.1-5.7c-2.2-2.3-5.3-2.6-6.8-0.7
	C328.5,504.4,327.1,506.5,327,509.3z"/>
<path class="st4" d="M476.2,520.1c0.4,3,2.6,5,4,7.4c3.7,6,6,12.6,9.8,18.5c2.6,4,4.3,8.3,6.3,12.5c2.1,4.5,2.8,9.3,4.1,14
	c1.5,5.2,3.7,10.3,5.2,15.5c1.9,6.4,5.5,12.3,5.3,19.3c-0.1,3.3-1.6,5.3-4.6,5.8c-3.2,0.6-4.5-1.1-5.6-4.3c-2.1-6.3-5.6-12-8-18.2
	c-3.9-10-8-19.9-13.2-29.2c-5.7-10.3-12.7-19.6-21.3-27.9c-9.6-9.2-20.3-16.7-31.3-24.1c-5.4-3.6-9.9-8.7-14.9-13
	c-5.3-4.5-10.9-8.4-16.3-12.7c-5.8-4.6-10.8-10.1-13.3-17.4c-2.5-7.5-3.9-15-3.1-22.9c0.3-2.6-1.2-4.5-1.7-6.7
	c-1.4-5.9-1.8-12.1-4-17.8c-0.3-0.7-0.3-1.5-0.3-2.2c0-8.6,0.1-17.2-0.9-25.7c-0.4-3.1-2.3-5.5-2.7-8.6c-0.6-4.5-3.3-8.3-4.3-12.8
	c-1.2-4.9-4.9-8.6-9-11.9c-4-3.2-9.3-4.2-13-7.7c-3.6-3.4-3.3-7.2,1.6-8.6c7-2,14.4-2.9,21.5-0.2c7,2.6,10.9,8.5,13.4,15.1
	c2.7,7.2,6.7,13.7,9.4,20.8c2.2,5.7,5.4,11,6.8,17.1c0.7,2.7,2.3,5.3,3.4,8c2.3,5.5,4.9,11,7.3,16.6c7.1,16.3,15.5,32,23.5,47.8
	c3.3,6.4,7.1,12.4,11.7,18.1c4.6,5.6,8.8,11.4,14.1,16.4c3.1,3,6.4,5.8,10.2,7.9c0,0,0.2,0,0.2,0c0.2,0.2,0.5,0.4,0.7,0.7
	c0,0,0.1,0.1,0.1,0.1c0.2,0.2,0.5,0.4,0.7,0.7c0,0,0.1,0.1,0.1,0.1c0.2,0.2,0.4,0.5,0.7,0.7c0,0,0.1,0.1,0.1,0.1
	c0.2,0.2,0.5,0.4,0.7,0.7c0,0,0.1,0.1,0.1,0.1c0.2,0.2,0.5,0.4,0.7,0.7c0,0,0,0,0,0c0.2,0.2,0.5,0.5,0.7,0.7c0,0,0.1,0.1,0.1,0
	c0.2,0.2,0.5,0.5,0.7,0.7c0,0,0,0,0,0C471.6,517.2,473.6,518.9,476.2,520.1L476.2,520.1z"/>
<path class="st2" d="M449.7,675.7c2.4-2.6,1.4-5.5,0.8-8.4c-0.2-0.8-0.8-1.6-0.8-2.4c-0.1-10.4-3.3-19.8-8.4-28.7
	c-0.5-0.8-0.7-1.6-0.7-2.5c0-2.7,2.2-4.2,4.1-2.5c3.1,2.7,6.1,5.5,8.4,9.2c4.6,7.1,7.3,15.1,11,22.5c2.1,4.2,3,8.9,4.9,13.2
	c2.3,5.1,3.2,10.6,4.1,16c1.1,6.5,1.2,13.4-1.4,19.8c-0.8,2.1-5,2.8-7.7,1.3c-2-1.1-3.8-2.3-6.2-2.4c-3.8-4.5-5.2-10.2-7.2-15.6
	c-1.2-3.2-0.7-7.1,0.3-10.6c-0.2-0.3-0.4-0.5-0.6-0.8c0,0,0,0,0,0c-0.4-2,1.5-4.2-0.7-6C449.6,677.2,449.6,676.4,449.7,675.7z"/>
<path class="st4" d="M539.1,497.6c-0.6-5.9,3.5-9.1,10.4-6.7c4.6,1.6,9.3,0.7,13.8,2c9,2.5,17.8,4.8,24,12.5c2.5,3.1,2.7,6.8,2,10.3
	c-1.1,5.5-3.1,10.8-4.8,16.1c-0.9,2.9-2.8,5-6.1,5.1c-3.4,0-4.9-2.8-6.5-5c-4-5.8-7.3-12-12.9-16.4c-1.9-1.5-2-4-3.9-5.4
	c-4.2-3.3-8.1-7-13-9.4c0,0-0.2,0-0.2,0c-0.5-1.5-1.2-2.7-3-2.9L539.1,497.6z"/>
<path class="st3" d="M449.6,677.9c2.2,1.8,0.3,4,0.7,6C448.8,682.1,449.7,679.9,449.6,677.9z"/>
<path class="st3" d="M450.3,683.9c0.2,0.3,0.4,0.5,0.6,0.8C450.7,684.5,450.5,684.2,450.3,683.9z"/>
<path class="st5" d="M642.8,405.8c4.3,1.5,8.1,4,11.7,6.6c4.1,2.9,7.9,6.2,11.5,9.7c3.6,3.5,5.8,7.7,7.8,12.1
	c-1.1,0.8-0.4,1.5,0,2.5c2.8,6.8,7.6,12.9,6.7,20.9c-0.3,2.3,1.5,2.1,3.1,2c0,0-0.1,0-0.1,0c0.2,0.3,0.4,0.6,0.6,0.8
	c0.3,3.9,3.3,6.9,3.8,10.8c0.8,2-2,5.8,2.9,5.8c3.2,5.4,4.3,11.8,7.8,17c0.9,5.6,4,10,7.2,14.4c0.2,4.5,2.6,8.7,1.8,13.3
	c0,2.7-0.8,5.8,0.2,8.1c2.5,5.9,0.7,11.1-1.3,16.6c-0.9,2.3-2.4,3.8-4,5.5c-2.5,2.6-6,4.5-7.1,8.3c-0.3,0.3-0.7,0.5-1,0.8
	c0,0,0,0,0,0c-4.1,3-8.6,5.4-13,7.7c-8.4,4.4-13.8,3.8-19.6-3.7c-3.4-4.5-5.9-9.7-8.8-14.6c0.8-1.3-0.1-1.3-1-1.3c0,0,0,0,0,0
	c0.3-1.8-0.2-3.7,1.3-5.3c0.5-0.5,0.8-1.8-0.7-1.8c-4,0-5.1-3-6.5-6c-1.7-3.6-1.5-7.4-1.4-11.2c0-2.3-0.9-3.2-3.1-2.9
	c-1.6-1.3,0.1-3.6-1.4-4.9c0.3-2-1-3.1-2.4-4.1c-1.4-8.2-4.8-15.5-9.7-22.1c-1.9-2.6-2.6-5.8-3.4-8.7c-1.4-5.3-5.3-8.3-9-11.3
	c-4.9-3.9-10.4-7-16-9.9c-0.1-1-0.7-1.3-1.6-1.3c-5.6-1.2-9.4-4.6-12-9.5c-0.1-2.3,0.8-4.7-0.5-6.9c2.5-4.3,5.1-8.5,7.6-12.8
	c2.1,0.3,4.1-0.6,4.8-2.2c1-2.3,1.2-5,0.9-7.6c2.1-4.7,3.3-9.9,6.2-14.2c3.3-1,5.3-3.4,6.7-6.4c0.5-0.4,1-0.8,1.5-1.1
	c5.5,0.3,11-0.7,16.4,0.9c0.7-0.1,1.4,0,1.9,0.6C634.5,403.8,638.8,404.4,642.8,405.8z"/>
<path class="st5" d="M554.5,381.6c-1.8-0.1-3,1.3-4.7,1.6c-2.8,1.2-5.8,0.7-8.7,0.8c-3.4-1.5-2.4-5.3-3.8-7.8
	c-0.4-0.7-0.2-1.7-0.8-2.4c0-1.1,0.3-2.4-0.2-3.3c-1.9-3.4-2.8-7-3.7-10.7c-0.8-3.2-4.1-6.3-0.9-9.9c0.1-0.1-0.4-0.8-0.6-1.2
	c1.1-5.9,5.8-8.3,10.6-10.4c7.2,1.7,14.7-0.3,21.9,1.9c0,0,0.1,0.1,0.1,0.1c0.5,3.1,2.9,5.5,3.1,8.7c0,0.2,1.1,0.4,1.6,0.5
	c1,2,2,4.1,2.9,6.1c-1.2,2.6,0.7,5,1.6,6.8c1,2.1-1.5,3.7,0.1,5c3.3,2.4,2.2,5.8,2.3,8.9c0.1,3.7-2.5,6-5.8,4.4
	c-4.3-2-8.6-0.8-12.8-1.2C555.3,379.4,554.4,380,554.5,381.6z"/>
<path class="st6" d="M554.5,381.6c-0.1-1.7,0.8-2.2,2.3-2.1c4.3,0.4,8.6-0.8,12.8,1.2c3.2,1.5,5.8-0.7,5.8-4.4c0-3.1,1-6.5-2.3-8.9
	c-1.7-1.3,0.9-2.9-0.1-5c-0.9-1.8-2.8-4.2-1.6-6.8c5.1,7.3,6.1,15.6,5.3,24.2c-0.3,2.8-4.6,4.6-7.2,3
	C564.7,379.6,559.6,381,554.5,381.6z"/>
<path class="st6" d="M695.4,560.2c1.1-3.8,4.6-5.7,7.1-8.3c1.6-1.7,3.1-3.1,4-5.5c2-5.5,3.8-10.6,1.3-16.6c-1-2.3-0.2-5.4-0.2-8.1
	c0.3,0.1,0.9,0.3,1,0.5c1.4,9.1,4.4,18.3-1.9,26.8C703.5,553.3,700.1,557.4,695.4,560.2z"/>
<path class="st6" d="M641.4,522c2.2-0.3,3.1,0.6,3.1,2.9c-0.1,3.8-0.4,7.5,1.4,11.2c1.4,3,2.5,5.9,6.5,6c1.5,0,1.2,1.3,0.7,1.8
	c-1.5,1.6-1,3.5-1.3,5.3c-0.2-0.1-0.6-0.1-0.7-0.2c-2-6.6-8.8-11.2-8.1-19C643.3,527.1,641,524.8,641.4,522z"/>
<path class="st6" d="M683.6,459.7c-1.5,0.1-3.3,0.3-3.1-2c0.9-8-3.9-14.1-6.7-20.9c-0.4-1-1.1-1.6,0-2.5c4.3,6.1,7.6,12.6,8.8,20
	C683,456.1,683.3,457.9,683.6,459.7z"/>
<path class="st6" d="M531.2,348.8c0.2,0.4,0.7,1.1,0.6,1.2c-3.2,3.6,0.2,6.7,0.9,9.9c0.9,3.6,1.8,7.3,3.7,10.7
	c0.5,0.9,0.1,2.2,0.2,3.3c-2.6-2.1-2.6-5.4-3.5-8.2c-1.3-4.5-4.1-8.7-3.8-13.7C529.3,350.4,529.4,349.1,531.2,348.8z"/>
<path class="st6" d="M563.7,340.2c-7.2-2.1-14.7-0.2-21.9-1.9c7-0.8,14.1-2.1,21,0.8C563.1,339.3,563.4,339.8,563.7,340.2z"/>
<path class="st6" d="M705.9,508.5c-3.2-4.4-6.3-8.9-7.2-14.4C702.6,498,704.7,503,705.9,508.5z"/>
<path class="st6" d="M598.6,420.7c0.2,2.6,0,5.3-0.9,7.6c-0.7,1.6-2.7,2.5-4.8,2.2C594.8,427.2,595.7,423.4,598.6,420.7z"/>
<path class="st6" d="M629.4,399.9c-5.4-1.6-10.9-0.6-16.4-0.9c0.3-1.3,1.3-1.3,2.3-1.3c3.7,0,7.5,0.1,11.2,0
	C628.2,397.7,629.2,398.2,629.4,399.9z"/>
<path class="st6" d="M642.8,405.8c-4-1.4-8.4-2-11.6-5.3C635.5,401.5,640,401.8,642.8,405.8z"/>
<path class="st6" d="M568.6,349.5c-0.6-0.2-1.6-0.3-1.6-0.5c-0.2-3.2-2.6-5.6-3.1-8.7C567.1,342.5,567.9,346,568.6,349.5z"/>
<path class="st6" d="M611.5,400.1c-1.4,3-3.4,5.4-6.7,6.4C605.8,403.1,608.3,401.2,611.5,400.1z"/>
<path class="st3" d="M672,405.4c0.3,0.2,0.5,0.4,0.8,0.7c0.2,0.3,0.4,0.5,0.7,0.8c0.1,0.4,0.1,0.9,0.2,1.3c-3.4,0.4-4.9-1.6-5.9-4.5
	C669.4,403.5,670.5,404.9,672,405.4z"/>
<path class="st6" d="M541.1,384c2.9-0.1,5.9,0.4,8.7-0.8C548.2,385.9,543.7,386.3,541.1,384z"/>
<path class="st6" d="M690.8,477c-4.9,0-2.1-3.7-2.9-5.8C689.8,472.7,691,474.5,690.8,477z"/>
<path class="st6" d="M585.3,443.3c1.3,2.2,0.5,4.6,0.5,6.9C583.3,448.1,584.2,445.7,585.3,443.3z"/>
<path class="st6" d="M637.6,513c1.4,1,2.7,2.1,2.4,4.1C638.3,516.3,637.1,515.1,637.6,513z"/>
<path class="st6" d="M597.9,459.7c0.9,0,1.5,0.3,1.6,1.3c-1.2-0.3-2.5-0.6-3.8-1C596.4,459.4,597.2,459.7,597.9,459.7z"/>
<path class="st6" d="M694.3,561C694.3,561,694.4,561,694.3,561c0.2,0.2,0.3,0.3,0.4,0.5C694.2,561.7,694.4,561.2,694.3,561z"/>
<path class="st6" d="M651.9,549.1c0.9,0,1.8,0,1,1.3C652.2,550.3,651.9,549.8,651.9,549.1z"/>
<path class="st3" d="M655.1,392.9c0.5,0.2,0.9,0.5,1.4,0.7C655.7,394.1,654.9,394.4,655.1,392.9z"/>
<path class="st3" d="M665.2,400.1c0.1,0.2,0.1,0.4,0,0.6c-0.4-0.3-0.8-0.6-1.1-0.8C664.4,399.9,664.8,400,665.2,400.1z"/>
<path class="st6" d="M684.1,460.5c-0.2-0.3-0.4-0.6-0.6-0.8C683.7,459.9,683.9,460.2,684.1,460.5z"/>
<path class="st3" d="M677.5,411.9c0.2,0.2,0.4,0.4,0.6,0.7C677.9,412.3,677.7,412.1,677.5,411.9z"/>
<path class="st3" d="M674.5,408.9c0.2,0.2,0.4,0.4,0.7,0.6C674.9,409.3,674.7,409.1,674.5,408.9z"/>
<path class="st3" d="M682.7,418.6c0.2,0.2,0.4,0.5,0.7,0.7C683.1,419.1,682.9,418.8,682.7,418.6z"/>
<path class="st3" d="M678.2,412.6c0.2,0.2,0.4,0.4,0.6,0.7C678.6,413.1,678.4,412.8,678.2,412.6z"/>
<path class="st3" d="M652,388.5c0,0.2,0,0.5,0,0.7c-0.2-0.2-0.5-0.5-0.7-0.7C651.5,388.5,651.7,388.5,652,388.5z"/>
<path class="st3" d="M673.7,408.1c0.2,0.2,0.4,0.4,0.7,0.6C674.1,408.6,673.9,408.4,673.7,408.1z"/>
<path class="st3" d="M667.4,402.8c0.1,0.2,0.2,0.5,0.3,0.7C667.5,403.3,667.4,403.1,667.4,402.8z"/>
<path class="st2" d="M568.5,574.1c0.3,5.2,0.7,10.4-1.2,15.4c-3.2,8.3-5.6,16.8-10.9,24.2c-2,2.8-2.8,6.4-6.5,8.1
	c-3.1,1.5-7.3,2-10.1-0.4c-1.6-1.4-3-2.9-4-4.9c-4.3-8.6-10.2-16.4-13.3-25.6c-1.9-5.8-5.6-10.7-7.6-16.3
	c-2.6-7.1-6.4-13.6-8.9-20.6c-2-5.4-5.4-10.3-9.3-14.8c-4.2-4.9-7.5-10.5-11.5-15.6c-2.2-2.8-4.5-5.6-6.8-8.2
	c-3.4-3.7-6.2-8-9.8-11.6c-2.6-2.6-4.9-6.1-7.4-9.2c-2.8-3.5-5.3-7.2-8.2-10.5c-4.7-5.3-8.2-11.5-12.2-17.3
	c-4.9-7.1-8.3-15.1-11.9-22.9c-2.5-5.3-4.6-10.8-6.4-16.4c-1.1-3.3-2-6.8-3.9-10c-1.7-2.8-2.4-6.4-3.3-9.8
	c-2.4-8.9-5.5-17.5-8.5-26.2c-1.3-3.7-2-7.5-3.3-11.2c-2.2-6.2-5-12.1-7.5-18.1c-2.6-6-4.7-12.2-7.5-18c-2.4-5.1-4.7-10.3-8.2-14.9
	c-1.9-2.6-3-5.7-3.9-8.7c-1.1-3.7,3.3-8.9,7.6-9.9c5.4-1.2,10.9-0.5,16.4-0.7c6-0.2,11.7,2,17.5,3c6.8,1.2,12.3,4.5,18.2,7.4
	c4.6,2.3,8.6,6.3,13.6,7.3c7.1,1.4,12.1,6.1,17.4,10.1c5.2,4,8,10.4,11.4,16.2c2.5,4.4,4.2,9.2,7.1,13.4c2.5,3.6,2.3,8.3,3.9,12.3
	c2.9,7.2,1.8,14.8,1.3,22.1c-0.3,4.7-3.2,9.2-5.1,13.7c-0.7,1.6-1.4,3.2-1.4,5c0,7.4-0.1,14.7,0,22.1c0.1,3.8,2.5,6.7,4.3,9.8
	c2.8,4.9,5.4,10,8.6,14.6c4.4,6.4,9.7,12.1,15.1,17.8c5,5.3,9.1,11.5,13.3,17.6c3.4,5,7,9.8,10.8,14.5c5,6.2,9.5,12.6,14,19.1
	c3.2,4.6,5.6,9.6,8.9,14.2c1.3,1.8,1.6,4.4,2.7,6.4c2.8,5.2,5.1,10.7,6.6,16.3C569.2,566.4,568.5,570.4,568.5,574.1z M450.9,408
	c-0.5-2,1.2-4.5-1.4-6l0,0c0.1-4.3-0.8-8.3-3-12l0,0c-0.7-4.5-1.7-8.9-4.4-12.8c-0.3-3.1-2.1-5.5-3.2-8.3c-0.4-2.6-0.8-5.1-3.5-6.4
	c-0.1-0.6-0.1-1.4-0.4-1.7c-3-2.9-4.2-6.9-6.6-10.2c-3.4-4.8-7.2-8.7-12.1-11.7c-4.2-2.5-11,1.1-10.6,5.8c0.2,2.3,0.4,5,1.5,7.1
	c1.3,2.7,1.8,5.5,3,8.2c0,0.8-0.3,1.9,0,2.5c1.3,2.1,0,5.7,3.5,6.7c1.2,2.6-0.3,6.3,1.2,7.9c4.1,4.4,2.7,10.1,4.3,14.9
	c2.2,7,2.6,14.8,4.9,22c1,8.9,4.9,16.9,8.1,25.1c0.4,1.1,0.9,1.7,2,1.8c2.2,5.7,4.3,11.7,8.1,16.5c5.8,7.5,10.7,15.8,17.5,22.5
	c3.5,5.1,7,10.2,11.8,14.3c0.7,1.8,1.2,3.7,3.7,3.8c0.1,2.1,1.3,3.5,3,4.5c2.4,3.8,5.6,7.2,8.9,10c4.2,3.6,7.2,7.8,10.1,12.4
	c1.4,3.7,3.8,6.7,6.6,9.4c3.5,7.1,7.1,14.1,10.6,21.3c3.1,6.4,6,12.9,9.8,18.8c2.3,3.8,3.3,8.5,7.3,11.3c0.1,0.2,0.1,0.5,0.2,0.7
	c1.8,4.3,5.4,6.6,9.2,5.7c1.2-0.3,2.1-0.6,0.5-1.7c0.5-0.4,1-0.8,1.5-1.2c1.4,0,1.5-1,1.5-2c0-3.1,0-6.1,0-9.2c0-1-0.2-2-1.4-2.2
	c0.9-6.1-2.8-11.4-3.5-17.2c-0.3-2.2-0.8-4.9-1.7-7.4c-2.6-7-7.2-13.1-9.5-20.2c-2.1-3.6-2.7-8.4-7.1-10.4c-0.1-0.5,0.1-1.1-0.2-1.4
	c-6.4-8-13-15.9-19.3-24c-2.2-2.8-5.1-5.1-7.1-8.1c-2.9-4.1-5.2-8.6-9.2-11.7c-1.2-1.5-0.3-4.6-3.5-4.7l-0.1-0.1
	c-0.9-1.8-1.4-3.8-3.2-5c-5.5-7.8-9.8-16.3-14.5-24.6c-1.3-2.6-1.8-5.6-3.6-8.1l0-0.2c-0.7-3-0.6-6.3-3.7-8.2
	c0.3-4.1-3-6.9-3.8-10.6C452,412,453.6,409.6,450.9,408L450.9,408z"/>
<path class="st1" d="M493.7,436.9c0.3-3.6,2-5.9,4.8-7c4.1-1.6,5.5,2.4,7.8,4.3c0.9,0.8,1.6,2.2,1.6,3.3c0.2,8.6,4.8,15.8,7.5,23.6
	c0.4,1.1,0.7,2.2,0.8,3.3c0.2,1.3-0.7,2.1-1.8,2.6c-0.9,0.4-1.7,0-2.3-0.8c-4.7-5.8-11-10.5-14.1-17.7
	C496.3,444.6,494.4,440.8,493.7,436.9z"/>
<path class="st1" d="M476.2,520c-2.7-1.1-4.7-2.8-4.5-6C473.8,515.5,476.4,516.7,476.2,520z"/>
<path class="st1" d="M539,497.7c1.8,0.1,2.5,1.4,3,2.9C539.2,501.6,539.4,499.3,539,497.7z"/>
<path class="st1" d="M471.7,514c-0.2-0.2-0.5-0.5-0.7-0.7C471.5,513.2,471.8,513.5,471.7,514z"/>
<path class="st1" d="M471,513.3c-0.2-0.2-0.5-0.5-0.7-0.7C470.8,512.5,471,512.7,471,513.3z"/>
<path class="st1" d="M470.2,512.5c-0.2-0.2-0.5-0.4-0.7-0.7C470,511.7,470.3,512,470.2,512.5z"/>
<path class="st1" d="M469.4,511.8c-0.2-0.2-0.5-0.5-0.7-0.7C469.3,511,469.5,511.2,469.4,511.8z"/>
<path class="st1" d="M468.7,511c-0.2-0.2-0.4-0.5-0.7-0.7C468.5,510.3,468.8,510.5,468.7,511z"/>
<path class="st1" d="M467.9,510.3c-0.2-0.2-0.5-0.4-0.7-0.7C467.8,509.5,468,509.7,467.9,510.3z"/>
<path class="st1" d="M467.2,509.5c-0.2-0.2-0.4-0.5-0.7-0.7C467,508.8,467.3,509,467.2,509.5z"/>
<path class="st2" d="M327,509.3c0.1-2.8,1.5-4.9,3-6.8c1.5-2,4.7-1.6,6.8,0.7c1.6,1.7,2.8,3.7,4.1,5.7c3.7,6.1,6.7,12.7,10.7,18.5
	c4.9,7.1,10.2,14.1,17.9,18.7c0.3,0.2,0.7,0.4,0.9,0.7c7.3,8.2,16.7,14.2,23.9,22.4c0.9,1.1,2.9,2.3,1.3,3.6c-1.5,1.3-2.3,4-5.8,2.6
	c-8.6-3.5-16.7-7.9-24.6-12.6c-6-3.6-11.6-8.2-16.7-13.4c-5.1-5.2-9.6-10.6-13.6-16.5c-1.9-2.9-2.9-6.5-4-9.9
	C329.5,518.5,328.3,513.9,327,509.3z"/>
<path class="st5" d="M496.9,525c-2.8-4.6-5.8-8.8-10.1-12.4c-3.3-2.8-6.5-6.2-8.9-10c-0.1-2.1,1.1-5.1-3-4.5c-2.5-0.1-3-2.1-3.7-3.8
	c1.4-1.1,0.4-1.9-0.4-2.7c-2-2.1-4-4.2-5.6-6.8c-1.2-2-2.8-4.5-5.8-4.8c-6.8-6.7-11.7-15-17.5-22.5c-3.7-4.8-5.8-10.8-8.1-16.5
	c1.4-1.5-0.9-1.2-1-2.1c-1.4-8.1-7.1-14.9-7.3-23.5c0-1.1-0.8-1.4-1.8-1.4c-2.2-7.2-2.7-15-4.9-22c-1.5-4.8-0.1-10.6-4.3-14.9
	c-1.5-1.6,0-5.3-1.2-7.9c-0.1-1.1,0.2-2.5-0.3-3.2c-1.4-1.9,0.4-5.4-3.2-6c-1.2-2.6-1.7-5.5-3-8.2c-1-2.2-1.3-4.8-1.5-7.1
	c-0.4-4.7,6.5-8.2,10.6-5.8c4.9,2.9,8.8,6.9,12.1,11.7c2.4,3.3,3.6,7.3,6.6,10.2c0.4,0.3,0.3,1.1,0.4,1.7c1.3,2.1,0.1,5.5,3.5,6.4
	c1.2,2.7,2.9,5.2,3.2,8.3c-0.4,3.1,1.1,5.7,2.4,8.2c0.8,1.5-0.5,4,2.1,4.6c0,0,0,0,0,0c0,1.1-0.3,2.3,0.1,3.3c1,2.9,0.5,6.2,2.9,8.6
	c0,0,0,0,0,0c0.6,2-1.3,4.5,1.4,6c0,0,0,0.1,0,0.1c0.6,1.9-1.2,4.4,1.4,5.9c0.8,3.7,4.1,6.5,3.8,10.6c0.6,3,0.9,6.2,3.7,8.2
	c0,0,0,0.2,0,0.2c0,1.3,0.1,2.7,0.1,4c0,2.4,1.2,3.8,3.6,4.1c4.7,8.3,9,16.8,14.5,24.6c-0.1,2.4-0.2,4.8,3.2,5c0,0,0.1,0.1,0.1,0.1
	c0.8,1.8,0.2,4.7,3.5,4.7c4,3.1,6.3,7.6,9.2,11.7c2.1,2.9,4.9,5.2,7.1,8.1c6.3,8.1,12.9,16,19.3,24c0.3,0.3,0.1,0.9,0.2,1.4
	c1.5,2.8,2.9,5.6,4.4,8.3c0.6,1,1.2,2.3,2.7,2.1c2.4,7.1,6.9,13.2,9.5,20.2c0.9,2.4,1.4,5.1,1.7,7.4c0.8,5.9,4.4,11.1,3.5,17.2
	c0,4.5-0.1,9-0.1,13.5c-0.5,0.4-1,0.8-1.5,1.2c-2.4,1.2-4.2,0.3-5.8-1.5c-1-1.1-1.9-2.7-3.8-2.5c-0.1-0.2-0.1-0.5-0.2-0.7
	c0.9-0.7,0.9-1.5,0.1-2.2c-2.3-2.1-3.3-5.1-5.1-7.6c-0.7-0.9-1.1-1.5-2.3-1.5c-3.8-6-6.7-12.5-9.8-18.8c-3.5-7.1-7.1-14.2-10.6-21.3
	C502.7,530.3,501.1,526.8,496.9,525z"/>
<path class="st6" d="M423.7,414c1,0,1.8,0.3,1.8,1.4c0.2,8.5,5.9,15.3,7.3,23.5c0.1,0.8,2.4,0.5,1,2.1c-1.1-0.2-1.6-0.8-2-1.8
	C428.6,430.9,424.7,422.9,423.7,414z"/>
<path class="st6" d="M459.4,480c3,0.3,4.6,2.8,5.8,4.8c1.6,2.6,3.6,4.7,5.6,6.8c0.8,0.8,1.8,1.6,0.4,2.7
	C466.5,490.2,462.9,485.1,459.4,480z"/>
<path class="st6" d="M531.4,586.5c1.9-0.1,2.8,1.4,3.8,2.5c1.7,1.8,3.5,2.7,5.8,1.5c1.6,1,0.7,1.4-0.5,1.7
	C536.8,593.1,533.2,590.8,531.4,586.5z"/>
<path class="st6" d="M523.9,574.5c1.1-0.1,1.6,0.6,2.3,1.5c1.8,2.5,2.8,5.5,5.1,7.6c0.8,0.7,0.8,1.5-0.1,2.2
	C527.2,583,526.2,578.3,523.9,574.5z"/>
<path class="st6" d="M527.9,531c-1.6,0.1-2.1-1.1-2.7-2.1c-1.5-2.7-3-5.5-4.4-8.3C525.2,522.7,525.7,527.4,527.9,531z"/>
<path class="st6" d="M496.9,525c4.2,1.8,5.7,5.3,6.6,9.4C500.7,531.7,498.3,528.7,496.9,525z"/>
<path class="st6" d="M542.5,589.3c0-4.5,0.1-9,0.1-13.5c1.3,0.2,1.4,1.2,1.4,2.2c0,3.1,0.1,6.1,0,9.2
	C544,588.3,543.9,589.3,542.5,589.3z"/>
<path class="st6" d="M409.9,360c3.6,0.6,1.7,4.2,3.2,6c0.6,0.7,0.2,2.1,0.3,3.2c-3.4-1-2.1-4.6-3.5-6.7
	C409.6,361.9,409.9,360.9,409.9,360z"/>
<path class="st6" d="M446.5,390c-2.6-0.6-1.3-3.1-2.1-4.6c-1.3-2.5-2.7-5.1-2.4-8.2C444.8,381.1,445.8,385.5,446.5,390z"/>
<path class="st6" d="M449.5,402c-2.4-2.4-1.9-5.7-2.9-8.6c-0.3-1-0.1-2.2-0.1-3.3C448.7,393.7,449.6,397.8,449.5,402z"/>
<path class="st6" d="M459.9,432.8c-2.9-2-3.1-5.2-3.7-8.2C459.3,426.4,459.2,429.8,459.9,432.8z"/>
<path class="st6" d="M463.6,441c-2.4-0.3-3.6-1.7-3.6-4.1c0-1.3,0-2.7-0.1-4C461.8,435.4,462.3,438.4,463.6,441z"/>
<path class="st6" d="M438.8,369c-3.4-0.9-2.3-4.3-3.5-6.4C438,363.9,438.4,366.4,438.8,369z"/>
<path class="st6" d="M474.9,498.1c4.1-0.6,3,2.3,3,4.5C476.1,501.6,474.9,500.3,474.9,498.1z"/>
<path class="st6" d="M481.3,470.6c-3.4-0.2-3.3-2.5-3.2-5C479.9,466.8,480.4,468.9,481.3,470.6z"/>
<path class="st6" d="M484.9,475.4c-3.3,0-2.7-2.9-3.5-4.7C484.5,470.8,483.6,473.9,484.9,475.4z"/>
<path class="st6" d="M452.4,414c-2.6-1.5-0.8-4-1.4-5.9C453.6,409.6,452,412,452.4,414z"/>
<path class="st6" d="M450.9,408c-2.7-1.5-0.9-4-1.4-6C452.1,403.5,450.4,406.1,450.9,408z"/>
</svg>
