<svg width="19" height="30" viewBox="0 0 19 30" fill="none" xmlns="http://www.w3.org/2000/svg">
<path d="M8.95927 29.8883C12.089 29.9148 15.6217 30.2352 18.5752 29.082C18.3094 28.764 17.9272 28.5491 17.6463 28.234C17.4814 28.2513 17.3179 28.2785 17.1567 28.3157C16.9347 28.3578 16.7104 28.388 16.4849 28.406C16.1696 28.4261 15.8531 28.4243 15.5381 28.4005C15.0694 28.361 14.896 28.2987 14.896 28.234C14.896 28.1694 15.0722 28.1156 15.5353 28.0703C15.7651 28.0478 16.0637 28.0223 16.4372 27.9802C16.6193 27.9436 16.8283 27.9293 17.0461 27.8702C17.1656 27.8477 17.297 27.8109 17.4494 27.7857C17.4655 27.7033 17.5095 27.6281 17.5748 27.5713C17.5958 27.5093 17.6327 27.4531 17.6823 27.4078C18.381 26.7422 17.5299 26.1754 16.9417 25.7694C16.6162 25.5466 16.2817 25.2307 15.9503 25.0362C15.6477 24.8993 15.3095 24.8483 14.9768 24.8894C14.7641 24.8907 14.5516 24.8785 14.3407 24.8529C14.0272 24.8105 13.9108 24.7569 13.9046 24.692C13.8984 24.6271 14.0241 24.5654 14.3376 24.523C14.4959 24.5004 14.699 24.4835 14.953 24.461C15.0871 24.4469 15.2395 24.43 15.3978 24.4045C15.3921 24.3561 15.3972 24.3071 15.4126 24.2606C15.3222 23.8054 15.2882 23.3417 15.3113 22.879C15.0667 22.8344 14.8192 22.8052 14.5705 22.7916C14.3019 22.8181 14.0654 22.834 13.8628 22.848C13.6316 22.8531 13.4003 22.8464 13.1699 22.8281C12.8237 22.8 12.6929 22.7486 12.6929 22.6845C12.6929 22.6204 12.8242 22.5547 13.1587 22.499C13.317 22.4709 13.526 22.4511 13.7918 22.423C13.7868 22.3941 13.7848 22.3648 13.7859 22.3355C13.4034 21.5827 12.7167 20.9536 12.442 20.1584C12.1855 19.3451 12.0793 18.4961 12.1283 17.6488C12.1707 15.8489 12.3633 14.055 12.7041 12.2837C12.5548 12.2866 12.4145 12.2866 12.286 12.2837C11.9159 12.2781 11.6263 12.264 11.4082 12.2471C10.9691 12.2105 10.8049 12.1541 10.808 12.0881C10.8111 12.0221 10.978 11.9641 11.4082 11.9161C11.6232 11.8896 11.9038 11.8711 12.2652 11.8541C12.4415 11.8427 12.6354 11.8342 12.8506 11.826C12.9084 11.7803 12.9787 11.7509 13.0535 11.7412C13.4298 11.6821 13.9284 11.4707 14.0241 11.0729C14.1083 10.7234 13.8538 10.5165 13.5224 10.4497C12.9104 10.3286 12.277 10.3821 11.6591 10.3003C11.5645 10.2758 11.4812 10.2226 11.4219 10.1489C11.3627 10.0751 11.3308 9.98501 11.3313 9.89245V9.53446C11.2077 9.55166 11.0822 9.55353 10.9581 9.54002C10.8286 9.53582 10.7001 9.51596 10.5759 9.48093C10.3727 9.41866 10.277 9.37361 10.286 9.3397C10.3012 9.25808 10.728 9.34817 11.406 9.15924C11.8084 9.02432 12.1822 8.82289 12.5099 8.56435C12.9482 8.21262 13.3278 7.80044 13.6358 7.34172C14.3196 6.34353 14.9827 4.86307 14.4361 3.45893C14.1288 2.72634 13.5664 2.11446 12.8416 1.72408C12.043 1.28029 11.1445 1.02132 10.2195 0.96835C8.3203 0.837714 6.43006 1.55979 5.71897 2.93029C5.35603 3.58016 5.16066 4.30175 5.14876 5.03637C5.12685 5.6854 5.23638 6.33242 5.47147 6.94266C5.63258 7.38618 5.88723 7.79426 6.22002 8.14226C6.55281 8.49026 6.95685 8.77096 7.40773 8.96739C8.05876 9.23529 8.50214 9.24642 8.49456 9.3283C8.49176 9.36222 8.38709 9.38739 8.18588 9.4078C8.14127 9.41045 8.08739 9.41336 8.03351 9.41336C8.04089 9.44774 8.04493 9.48269 8.04557 9.51776V9.89271C8.04557 9.90119 8.04249 9.90967 8.04249 9.91524C8.38316 9.9632 8.6489 10.0167 8.84898 10.0477C9.24914 10.11 9.40741 10.1747 9.40741 10.2396C9.40741 10.3045 9.2671 10.3551 8.83692 10.3779C8.56169 10.3797 8.28656 10.3674 8.01274 10.3411C7.88422 10.3299 7.76187 10.3185 7.61847 10.3074C7.01823 10.3779 6.33745 10.3045 5.75209 10.451C4.70679 10.716 5.51917 11.6326 6.2238 11.7426C6.31682 11.7535 6.40261 11.7955 6.4657 11.861C6.76401 11.9224 7.06636 11.9648 7.37069 11.9879C7.95297 12.033 8.4188 12.033 8.77378 12.0499C9.48739 12.0725 9.76211 12.1318 9.76211 12.1967C9.76211 12.2617 9.49637 12.3178 8.78248 12.3798C8.30293 12.4198 7.82124 12.4321 7.3401 12.4167C7.08626 12.4078 6.83323 12.3843 6.58243 12.3462C6.95902 14.2593 7.14998 16.2008 7.15293 18.1467C7.14114 18.8489 7.12908 19.6131 6.79149 20.2589C6.40929 20.9862 5.85704 21.5981 5.49251 22.3313C6.10195 22.4531 6.71956 22.5351 7.34094 22.5767C8.1205 22.6275 8.73561 22.6416 9.21042 22.6527C10.1541 22.6792 10.5246 22.7322 10.5335 22.8416C10.5425 22.9434 10.1929 23.0785 9.23427 23.1943C8.59321 23.2659 7.94755 23.2941 7.30222 23.2789C6.28306 23.2578 5.27158 23.1069 4.29512 22.8305C4.18764 22.8416 4.07708 22.8586 3.96652 22.8785C3.98823 23.3393 3.95415 23.801 3.86493 24.2545C4.2408 24.3724 4.62791 24.4554 5.0208 24.5026C5.52591 24.5733 5.99735 24.6043 6.42725 24.6438C7.27837 24.6944 7.93529 24.7453 8.4477 24.7848C9.47195 24.8494 9.86005 24.9453 9.86005 25.0497C9.86005 25.1541 9.47195 25.2527 8.44461 25.3232C7.93108 25.3542 7.24413 25.36 6.37506 25.3457C5.94515 25.3261 5.46137 25.3092 4.91585 25.2442C4.42892 25.1938 3.94992 25.0898 3.48862 24.9342C3.08633 25.2658 2.6613 25.5719 2.2163 25.8505C1.65198 26.2594 0.932196 26.778 1.59221 27.4073C1.64261 27.4525 1.68056 27.5086 1.70277 27.5708C1.72304 27.5884 1.74103 27.6083 1.75637 27.6299C2.31885 27.8572 2.91942 27.989 3.53044 28.0191C3.86175 28.0446 4.17829 28.0699 4.48005 28.0952C4.78452 28.1235 5.07131 28.1516 5.34295 28.1771C5.60869 28.2036 5.85956 28.2362 6.10061 28.2502C6.34166 28.2643 6.56363 28.2786 6.7755 28.2926C7.19951 28.3236 7.57301 28.335 7.89797 28.3546C9.19078 28.428 9.68663 28.5155 9.68663 28.6225C9.68663 28.7296 9.19695 28.8284 7.89488 28.896C7.56628 28.9103 7.19334 28.9299 6.75698 28.9243C6.53894 28.9243 6.30603 28.9214 6.06133 28.9214C5.81354 28.9158 5.55369 28.8933 5.2756 28.8764C4.73204 28.8424 4.12899 28.8059 3.46 28.7635C3.09235 28.7389 2.72677 28.6919 2.36559 28.6225C2.0738 28.5679 1.78937 28.4828 1.51756 28.3687C1.41197 28.4814 1.29713 28.5862 1.17409 28.6819C0.979902 28.8284 0.546908 29.0738 0.576654 29.3502C0.57835 29.3617 0.581361 29.3731 0.585634 29.3841C3.19341 30.3142 6.22998 29.8687 8.95927 29.8883Z" fill="black"/>
</svg>
