<svg width="12" height="11" viewBox="0 0 12 11" fill="none" xmlns="http://www.w3.org/2000/svg">
<path d="M11.8467 0.201934C11.8953 0.265782 11.9339 0.341632 11.9602 0.425138C11.9865 0.508644 12 0.598165 12 0.688575C12 0.778985 11.9865 0.868507 11.9602 0.952013C11.9339 1.03552 11.8953 1.11137 11.8467 1.17522L4.54336 10.7981C4.4949 10.8621 4.43734 10.9129 4.37396 10.9475C4.31058 10.9822 4.24264 11 4.17402 11C4.1054 11 4.03746 10.9822 3.97408 10.9475C3.9107 10.9129 3.85314 10.8621 3.80468 10.7981L0.152986 5.98664C0.0550308 5.85758 0 5.68253 0 5.5C0 5.31747 0.0550308 5.14242 0.152986 5.01336C0.250942 4.88429 0.383799 4.81179 0.522329 4.81179C0.660859 4.81179 0.793716 4.88429 0.891671 5.01336L4.17402 9.33952L11.1081 0.201934C11.1565 0.137924 11.2141 0.0871387 11.2775 0.0524876C11.3408 0.0178364 11.4088 0 11.4774 0C11.546 0 11.614 0.0178364 11.6773 0.0524876C11.7407 0.0871387 11.7983 0.137924 11.8467 0.201934Z" fill="#AB2A3B"/>
</svg>
