<svg width="13" height="10" viewBox="0 0 13 10" fill="none" xmlns="http://www.w3.org/2000/svg">
<path d="M12.309 0.932531C12.3592 0.982583 12.399 1.04204 12.4262 1.1075C12.4533 1.17297 12.4673 1.24314 12.4673 1.31402C12.4673 1.38489 12.4533 1.45507 12.4262 1.52053C12.399 1.58599 12.3592 1.64545 12.309 1.69551L4.76338 9.23904C4.71331 9.28922 4.65384 9.32903 4.58836 9.35619C4.52288 9.38336 4.45268 9.39734 4.38179 9.39734C4.31089 9.39734 4.2407 9.38336 4.17522 9.35619C4.10974 9.32903 4.05026 9.28922 4.0002 9.23904L0.227396 5.46727C0.126192 5.3661 0.0693359 5.22887 0.0693359 5.08579C0.0693359 4.9427 0.126192 4.80548 0.227396 4.7043C0.328601 4.60312 0.465863 4.54628 0.608988 4.54628C0.752113 4.54628 0.889376 4.60312 0.99058 4.7043L4.38179 8.09566L11.5458 0.932531C11.5959 0.882352 11.6553 0.842541 11.7208 0.815377C11.7863 0.788213 11.8565 0.774231 11.9274 0.774231C11.9983 0.774231 12.0685 0.788213 12.134 0.815377C12.1994 0.842541 12.2589 0.882352 12.309 0.932531V0.932531Z" fill="#212529"/>
</svg>
