<svg width="29" height="47" viewBox="0 0 29 47" fill="none" xmlns="http://www.w3.org/2000/svg">
<path d="M27.3331 41.1586C28.046 41.9172 29.2942 42.4796 28.9371 43.7043C28.6241 44.7962 27.5937 45.6879 26.6287 46.284C26.549 46.3373 26.4565 46.3703 26.3599 46.3798C26.2632 46.3893 26.1656 46.3751 26.0763 46.3384C22.4328 47.2177 18.6679 46.976 14.9287 46.951C10.8573 46.9607 6.78812 46.7701 2.73715 46.38C2.6436 46.3879 2.54944 46.3736 2.463 46.3384C2.3675 46.3104 2.27991 46.2619 2.20684 46.1967C1.28471 45.6049 0.128473 44.6336 0.0108069 43.5374C-0.119525 42.337 0.958674 41.9078 1.64506 41.1578C1.44786 40.9481 1.29579 40.7032 1.19756 40.437C1.09932 40.1709 1.05687 39.8888 1.07262 39.6069C1.08837 39.325 1.16202 39.0488 1.28935 38.7942C1.41668 38.5397 1.59518 38.3117 1.81461 38.1234C2.66688 37.2692 4.04047 36.744 4.77997 35.8021C4.77953 35.7495 4.78529 35.6969 4.79713 35.6455C4.93371 34.921 4.97489 34.183 4.9197 33.4488C4.91442 33.3301 4.94807 33.2128 5.01594 33.1134C5.0838 33.014 5.18245 32.9375 5.29803 32.8946C5.34057 32.8275 5.39743 32.7698 5.46489 32.7252C5.53235 32.6807 5.60887 32.6503 5.68943 32.6361C6.21954 32.5281 6.75712 32.457 7.29794 32.4235C7.74736 31.5066 8.45867 30.7786 8.92403 29.8778C9.66312 28.4401 9.60224 26.8688 9.55035 25.3058C9.44782 23.0088 9.18343 20.7211 8.75897 18.4584C7.3196 18.004 6.26673 16.5037 7.14146 15.1114C7.65462 14.2933 8.65764 14.1597 9.56751 14.1029C10.8982 14.0156 9.64596 13.2068 9.15895 12.8234C8.42886 12.231 7.84903 11.487 7.46341 10.6479C6.99547 9.63891 6.74691 8.54913 6.7329 7.44504C6.6959 6.15949 6.98692 4.88473 7.58067 3.73151C7.91561 3.09427 8.35945 2.51526 8.89379 2.01847C9.45862 1.51223 10.1064 1.09837 10.8112 0.793421C12.2629 0.173632 13.8528 -0.0897765 15.4373 0.0269808C17.0198 0.12044 18.5543 0.584077 19.9066 1.37736C21.2254 2.12866 22.2296 3.29732 22.7461 4.68202C22.9707 5.32929 23.0751 6.00929 23.0546 6.69113C23.0307 7.32341 22.9196 7.94987 22.7241 8.55416C22.6763 8.6834 22.633 8.81264 22.5852 8.94149C22.5284 9.08327 22.4675 9.22073 22.4111 9.35428C22.2939 9.62843 22.159 9.86694 22.0328 10.1129C21.7775 10.57 21.4855 11.0075 21.1597 11.4214C20.6056 12.1464 19.929 12.7776 19.1577 13.2887C17.8838 14.1139 19.4315 14.0512 20.1403 14.1597C20.4838 14.1843 20.8172 14.2825 21.1159 14.4469C21.4147 14.6113 21.6712 14.8378 21.8665 15.1098C22.7449 16.5103 21.6622 18.015 20.2143 18.4607C19.7285 20.9761 19.4609 23.5258 19.4143 26.0836C19.4057 27.6259 19.4315 29.0804 20.3924 30.4014C20.8825 31.0361 21.3104 31.7127 21.6708 32.4227C22.2131 32.4562 22.7522 32.5273 23.2838 32.6353C23.364 32.649 23.4401 32.6792 23.5069 32.7238C23.5737 32.7684 23.6296 32.8264 23.6707 32.8938C23.7873 32.9353 23.8869 33.0115 23.955 33.1112C24.0231 33.211 24.056 33.329 24.049 33.448C23.9961 34.1823 24.0373 34.92 24.1716 35.6447C24.187 35.6956 24.1943 35.7484 24.1933 35.8014C24.9846 36.8059 26.4543 37.2504 27.2804 38.2562C28.0807 39.2372 28.12 40.2418 27.3331 41.1586ZM26.2545 45.0135C26.7069 44.716 27.1087 44.3534 27.4458 43.9385C23.3157 45.4138 18.6719 45.093 14.3285 45.0593C10.4112 45.0304 6.03467 45.639 2.18069 44.6176C2.41497 44.8091 2.66184 44.9859 2.91978 45.1471C6.90998 45.5317 10.9184 45.7167 14.9287 45.7012C18.6719 45.7138 22.4896 45.9973 26.1233 45.0354C26.1663 45.0245 26.2102 45.0171 26.2545 45.0135ZM27.4981 42.984C27.1112 42.5141 26.5548 42.1964 26.1458 41.7308C25.9057 41.7562 25.6675 41.7965 25.4328 41.8514C25.1097 41.9138 24.7832 41.9584 24.4547 41.985C23.9957 42.0147 23.5349 42.0119 23.0763 41.9767C22.3939 41.9184 22.1415 41.8264 22.1415 41.7308C22.1415 41.6352 22.398 41.5557 23.0722 41.4888C23.4068 41.4555 23.8415 41.4183 24.3853 41.3556C24.6504 41.3016 24.9548 41.2804 25.2719 41.1931C25.4459 41.1598 25.6371 41.1053 25.859 41.0681C25.8825 40.9464 25.9466 40.8352 26.0416 40.7513C26.0722 40.6596 26.1259 40.5766 26.1981 40.5097C27.2154 39.5259 25.9762 38.6881 25.1199 38.0881C24.646 37.7588 24.1589 37.2919 23.6764 37.0045C23.2359 36.8021 22.7435 36.7267 22.2591 36.7875C21.9495 36.7895 21.64 36.7714 21.3329 36.7335C20.8765 36.6708 20.707 36.5917 20.698 36.4961C20.689 36.4006 20.8721 36.3085 21.3284 36.2459C21.5588 36.2126 21.8546 36.1875 22.2244 36.1542C22.4197 36.1335 22.6415 36.1084 22.872 36.0708C22.8637 35.9992 22.8711 35.9268 22.8936 35.8581C22.762 35.1853 22.7125 34.5 22.7461 33.8161C22.39 33.7503 22.0296 33.7071 21.6675 33.6869C21.2765 33.7261 20.9321 33.7496 20.6371 33.7703C20.3006 33.7778 19.9638 33.768 19.6284 33.7409C19.1242 33.6994 18.9338 33.6234 18.9338 33.5287C18.9338 33.4339 19.125 33.3368 19.612 33.2545C19.8425 33.213 20.1469 33.1836 20.5338 33.1421C20.5265 33.0994 20.5236 33.0561 20.5252 33.0129C19.9683 31.9002 18.9686 30.9705 18.5686 29.7952C18.195 28.5931 18.0405 27.3383 18.1118 26.0859C18.1736 23.4258 18.4539 20.7744 18.9502 18.1564C18.7328 18.1607 18.5285 18.1607 18.3414 18.1564C17.8025 18.1482 17.3809 18.1274 17.0634 18.1024C16.424 18.0483 16.185 17.9649 16.1895 17.8674C16.194 17.7698 16.4371 17.6841 17.0634 17.6132C17.3764 17.574 17.7849 17.5466 18.3112 17.5215C18.5678 17.5047 18.8501 17.4922 19.1634 17.48C19.2476 17.4124 19.35 17.369 19.4588 17.3547C20.0067 17.2674 20.7327 16.9548 20.8721 16.367C20.9946 15.8504 20.6241 15.5445 20.1415 15.4459C19.2505 15.2669 18.3283 15.346 17.4287 15.225C17.291 15.1889 17.1696 15.1103 17.0833 15.0013C16.997 14.8923 16.9507 14.7591 16.9515 14.6222V14.0931C16.7715 14.1186 16.5888 14.1213 16.4081 14.1014C16.2195 14.0951 16.0325 14.0658 15.8516 14.014C15.5558 13.922 15.4165 13.8554 15.4296 13.8053C15.4516 13.6847 16.0731 13.8178 17.0602 13.5386C17.6461 13.3392 18.1903 13.0414 18.6674 12.6593C19.3056 12.1395 19.8582 11.5303 20.3066 10.8523C21.3023 9.377 22.2677 7.18891 21.4718 5.1136C21.0245 4.03086 20.2057 3.1265 19.1504 2.54954C17.9876 1.89361 16.6794 1.51086 15.3328 1.43258C12.5676 1.2395 9.81551 2.30672 8.78021 4.33228C8.25178 5.29278 7.96734 6.35928 7.95001 7.44504C7.91811 8.4043 8.07759 9.36057 8.41986 10.2625C8.65443 10.918 9.02518 11.5212 9.50971 12.0355C9.99424 12.5498 10.5825 12.9647 11.2389 13.255C12.1868 13.651 12.8323 13.6674 12.8213 13.7884C12.8172 13.8386 12.6648 13.8758 12.3719 13.9059C12.3069 13.9098 12.2285 13.9142 12.15 13.9142C12.1608 13.965 12.1667 14.0166 12.1676 14.0685V14.6226C12.1676 14.6352 12.1631 14.6477 12.1631 14.6559C12.6591 14.7268 13.046 14.8059 13.3373 14.8517C13.9199 14.9434 14.1504 15.0389 14.1504 15.1349C14.1504 15.2308 13.9461 15.3056 13.3198 15.3393C12.919 15.342 12.5185 15.3238 12.1198 15.2849C11.9327 15.2684 11.7546 15.2516 11.5458 15.2352C10.6719 15.3393 9.68068 15.2308 8.82842 15.4474C7.30652 15.8391 8.48931 17.1937 9.51522 17.3563C9.65064 17.3725 9.77555 17.4346 9.8674 17.5313C10.3017 17.6221 10.7419 17.6847 11.185 17.7189C12.0328 17.7855 12.711 17.7855 13.2278 17.8106C14.2668 17.8439 14.6668 17.9316 14.6668 18.0275C14.6668 18.1235 14.2799 18.2065 13.2409 18.2982C12.5427 18.3573 11.8414 18.3755 11.1409 18.3526C10.7713 18.3395 10.4029 18.3047 10.0378 18.2484C10.5859 21.076 10.8639 23.9455 10.8684 26.8214C10.8512 27.8593 10.8337 28.9888 10.3421 29.9432C9.78569 31.0183 8.98163 31.9226 8.45091 33.0062C9.33834 33.1863 10.2377 33.3075 11.1425 33.3689C12.2771 33.4441 13.1727 33.4648 13.864 33.4813C15.238 33.5204 15.7773 33.5988 15.7903 33.7605C15.8034 33.9109 15.2943 34.1106 13.8987 34.2818C12.9653 34.3876 12.0253 34.4293 11.0857 34.4067C9.6019 34.3755 8.12924 34.1526 6.70757 33.7441C6.55109 33.7605 6.39012 33.7856 6.22914 33.815C6.26076 34.4961 6.21113 35.1784 6.08124 35.8487C6.62853 36.0228 7.19212 36.1457 7.76411 36.2157C8.49953 36.3199 9.18591 36.3657 9.81183 36.4241C11.051 36.4989 12.0075 36.5741 12.7535 36.6324C14.2447 36.728 14.8098 36.8698 14.8098 37.0241C14.8098 37.1784 14.2447 37.3241 12.749 37.4282C12.0013 37.4741 11.0012 37.4827 9.73584 37.4615C9.10992 37.4325 8.40556 37.4075 7.61131 37.3115C6.90238 37.237 6.20498 37.0833 5.53336 36.8533C4.94765 37.3433 4.32883 37.7957 3.68093 38.2076C2.85931 38.8119 1.81135 39.5783 2.77229 40.5085C2.84567 40.5753 2.90093 40.6582 2.93326 40.7501C2.96277 40.7762 2.98896 40.8055 3.0113 40.8375C3.83023 41.1735 4.70464 41.3683 5.59423 41.4128C6.07661 41.4504 6.53747 41.4878 6.97681 41.5252C7.4201 41.5671 7.83766 41.6086 8.23314 41.6462C8.62005 41.6854 8.98531 41.7335 9.33627 41.7543C9.68722 41.775 10.0104 41.7962 10.3189 41.817C10.9362 41.8628 11.48 41.8796 11.9531 41.9086C13.8354 42.0171 14.5573 42.1463 14.5573 42.3045C14.5573 42.4628 13.8444 42.6088 11.9486 42.7087C11.4702 42.7299 10.9272 42.7588 10.2919 42.7506C9.97444 42.7506 9.63533 42.7463 9.27907 42.7463C8.91831 42.7381 8.53998 42.7048 8.13509 42.6797C7.3437 42.6296 6.4657 42.5756 5.49168 42.5129C4.9564 42.4766 4.42414 42.407 3.89829 42.3045C3.47345 42.2239 3.05934 42.098 2.66361 41.9294C2.50987 42.096 2.34266 42.2508 2.16353 42.3923C1.8808 42.6088 1.25039 42.9715 1.2937 43.38C1.29617 43.3971 1.30055 43.4139 1.30677 43.4301C5.09824 44.8052 9.51889 44.1468 13.4938 44.1742C18.0546 44.2134 23.198 44.69 27.4981 42.984Z" fill="#DD8A8A"/>
</svg>
