<svg width="18" height="30" viewBox="0 0 18 30" fill="none" xmlns="http://www.w3.org/2000/svg">
<path d="M16.9654 26.2715C17.4079 26.7557 18.1826 27.1146 17.961 27.8963C17.7667 28.5933 17.1271 29.1625 16.5282 29.543C16.4787 29.577 16.4213 29.598 16.3613 29.6041C16.3013 29.6102 16.2407 29.6011 16.1853 29.5777C13.9238 30.1389 11.5869 29.9847 9.26608 29.9687C6.73903 29.9749 4.21332 29.8533 1.69892 29.6042C1.64085 29.6093 1.58241 29.6002 1.52876 29.5777C1.46949 29.5598 1.41511 29.5289 1.36976 29.4872C0.797405 29.1095 0.079742 28.4895 0.00670774 27.7898C-0.0741878 27.0236 0.595039 26.7497 1.02107 26.271C0.898674 26.1371 0.804283 25.9808 0.743311 25.8109C0.682339 25.641 0.655986 25.4609 0.665763 25.281C0.67554 25.101 0.721255 24.9248 0.800287 24.7623C0.879318 24.5998 0.990111 24.4543 1.12631 24.3341C1.6553 23.7889 2.50788 23.4536 2.96688 22.8524C2.96661 22.8188 2.97018 22.7853 2.97753 22.7524C3.0623 22.29 3.08786 21.819 3.0536 21.3503C3.05033 21.2745 3.07122 21.1997 3.11334 21.1362C3.15546 21.0728 3.21669 21.0239 3.28843 20.9966C3.31484 20.9537 3.35013 20.9169 3.392 20.8885C3.43387 20.86 3.48137 20.8406 3.53137 20.8316C3.8604 20.7626 4.19407 20.7172 4.52976 20.6958C4.80871 20.1106 5.25021 19.6459 5.53905 19.0709C5.9978 18.1532 5.96001 17.1503 5.92781 16.1526C5.86417 14.6865 5.70006 13.2263 5.4366 11.7819C4.5432 11.4919 3.88969 10.5343 4.43263 9.64557C4.75114 9.12336 5.37371 9.03811 5.93846 9.00187C6.7644 8.94612 5.98715 8.4299 5.68486 8.18517C5.23171 7.80701 4.87182 7.33213 4.63246 6.79651C4.34201 6.1525 4.18773 5.45689 4.17904 4.75215C4.15607 3.93159 4.33671 3.11792 4.70524 2.38181C4.91314 1.97506 5.18862 1.60548 5.52028 1.28839C5.87087 0.965251 6.27292 0.701085 6.71039 0.506439C7.61146 0.110829 8.5983 -0.0573042 9.5818 0.0172218C10.564 0.0768764 11.5164 0.372815 12.3558 0.879164C13.1744 1.35872 13.7977 2.10467 14.1183 2.98852C14.2577 3.40168 14.3225 3.83572 14.3098 4.27093C14.2949 4.67452 14.226 5.07438 14.1046 5.4601C14.0749 5.5426 14.048 5.62509 14.0184 5.70734C13.9831 5.79783 13.9453 5.88558 13.9103 5.97082C13.8376 6.14581 13.7539 6.29805 13.6755 6.45504C13.517 6.74682 13.3359 7.02605 13.1336 7.29023C12.7897 7.75303 12.3697 8.15589 11.891 8.48215C11.1003 9.00886 12.0609 8.96887 12.5009 9.03811C12.7141 9.05383 12.921 9.11646 13.1065 9.22142C13.2919 9.32637 13.4511 9.47097 13.5723 9.64457C14.1175 10.5385 13.4455 11.4989 12.5468 11.7834C12.2453 13.389 12.0792 15.0165 12.0503 16.6491C12.0449 17.6335 12.0609 18.562 12.6574 19.4052C12.9615 19.8102 13.2272 20.2421 13.4508 20.6953C13.7874 20.7167 14.122 20.7621 14.452 20.8311C14.5018 20.8398 14.549 20.8591 14.5905 20.8875C14.632 20.916 14.6666 20.9531 14.6922 20.9961C14.7645 21.0225 14.8264 21.0712 14.8686 21.1348C14.9109 21.1985 14.9313 21.2738 14.927 21.3498C14.8941 21.8185 14.9197 22.2894 15.0031 22.7519C15.0126 22.7844 15.0172 22.8181 15.0165 22.8519C15.5077 23.4931 16.4199 23.7769 16.9326 24.4188C17.4294 25.045 17.4538 25.6862 16.9654 26.2715ZM16.2959 28.732C16.5767 28.5421 16.8261 28.3107 17.0353 28.0458C14.4718 28.9875 11.5895 28.7828 8.89355 28.7613C6.46212 28.7428 3.74565 29.1313 1.35353 28.4793C1.49895 28.6015 1.65218 28.7144 1.81228 28.8173C4.28895 29.0628 6.77693 29.1809 9.26608 29.171C11.5895 29.179 13.959 29.36 16.2145 28.746C16.2411 28.739 16.2684 28.7343 16.2959 28.732ZM17.0678 27.4366C16.8277 27.1366 16.4823 26.9339 16.2284 26.6367C16.0794 26.6529 15.9316 26.6786 15.7859 26.7137C15.5854 26.7535 15.3827 26.7819 15.1788 26.7989C14.8939 26.8179 14.6079 26.8161 14.3232 26.7937C13.8997 26.7564 13.743 26.6977 13.743 26.6367C13.743 26.5757 13.9022 26.5249 14.3207 26.4822C14.5283 26.4609 14.7982 26.4372 15.1357 26.3972C15.3003 26.3627 15.4892 26.3492 15.686 26.2934C15.794 26.2722 15.9127 26.2375 16.0504 26.2137C16.065 26.136 16.1048 26.065 16.1638 26.0115C16.1827 25.9529 16.2161 25.9 16.2609 25.8572C16.8923 25.2293 16.1232 24.6946 15.5917 24.3116C15.2975 24.1013 14.9952 23.8034 14.6957 23.6199C14.4223 23.4907 14.1167 23.4426 13.816 23.4814C13.6238 23.4826 13.4317 23.4711 13.2411 23.4469C12.9579 23.4069 12.8526 23.3564 12.847 23.2954C12.8415 23.2344 12.9551 23.1757 13.2383 23.1357C13.3814 23.1144 13.565 23.0984 13.7945 23.0772C13.9157 23.0639 14.0534 23.0479 14.1964 23.0239C14.1913 22.9782 14.1959 22.932 14.2098 22.8882C14.1281 22.4587 14.0974 22.0213 14.1183 21.5848C13.8972 21.5427 13.6736 21.5152 13.4488 21.5023C13.2061 21.5273 12.9923 21.5423 12.8093 21.5555C12.6004 21.5603 12.3914 21.554 12.1831 21.5368C11.8702 21.5103 11.752 21.4618 11.752 21.4013C11.752 21.3408 11.8707 21.2788 12.173 21.2263C12.316 21.1998 12.5049 21.181 12.7451 21.1545C12.7406 21.1273 12.7388 21.0997 12.7398 21.0721C12.3941 20.3618 11.7736 19.7684 11.5253 19.0182C11.2935 18.2509 11.1976 17.45 11.2418 16.6506C11.2802 14.9526 11.4541 13.2602 11.7622 11.5892C11.6273 11.5919 11.5005 11.5919 11.3843 11.5892C11.0498 11.5839 10.7881 11.5707 10.5911 11.5547C10.1942 11.5202 10.0459 11.4669 10.0487 11.4047C10.0515 11.3425 10.2023 11.2877 10.5911 11.2425C10.7853 11.2175 11.0389 11.2 11.3656 11.184C11.5248 11.1732 11.7 11.1652 11.8946 11.1575C11.9468 11.1143 12.0104 11.0866 12.0779 11.0775C12.418 11.0217 12.8686 10.8222 12.9551 10.447C13.0311 10.1173 12.8011 9.92205 12.5016 9.85906C11.9486 9.74481 11.3762 9.79531 10.8178 9.71807C10.7323 9.69505 10.657 9.64486 10.6034 9.5753C10.5499 9.50573 10.5211 9.42067 10.5216 9.33334V8.99562C10.4099 9.01184 10.2965 9.01361 10.1843 9.00086C10.0673 8.9969 9.95118 8.97817 9.83894 8.94512C9.65534 8.88637 9.56887 8.84388 9.57698 8.81188C9.59068 8.73488 9.97639 8.81988 10.5891 8.64164C10.9527 8.51435 11.2905 8.32432 11.5867 8.08043C11.9828 7.74861 12.3258 7.35975 12.6041 6.92701C13.2221 5.98532 13.8213 4.58866 13.3273 3.264C13.0497 2.57289 12.5415 1.99564 11.8864 1.62736C11.1647 1.20869 10.3527 0.964378 9.51688 0.914411C7.80058 0.791169 6.09239 1.47237 5.44979 2.76529C5.1218 3.37837 4.94524 4.05912 4.93449 4.75215C4.91469 5.36445 5.01367 5.97483 5.22612 6.55053C5.37172 6.96895 5.60184 7.35393 5.90258 7.68223C6.20332 8.01053 6.56844 8.27533 6.9759 8.46065C7.56423 8.71338 7.9649 8.72388 7.95806 8.80113C7.95552 8.83313 7.86093 8.85688 7.67911 8.87612C7.63878 8.87862 7.5901 8.88137 7.54141 8.88137C7.54808 8.91381 7.55173 8.94678 7.55231 8.97987V9.33359C7.55231 9.34159 7.54952 9.34959 7.54952 9.35484C7.85738 9.40009 8.09753 9.45058 8.27834 9.47983C8.63996 9.53833 8.78299 9.59932 8.78299 9.66057C8.78299 9.72182 8.65619 9.76956 8.26744 9.79106C8.01872 9.79277 7.77008 9.78117 7.52264 9.75631C7.4065 9.74582 7.29593 9.73507 7.16634 9.72457C6.62391 9.79106 6.0087 9.72182 5.47971 9.86006C4.53508 10.11 5.26923 10.9747 5.906 11.0785C5.99005 11.0888 6.06758 11.1285 6.12459 11.1902C6.39418 11.2481 6.6674 11.2881 6.94242 11.31C7.46863 11.3525 7.88959 11.3525 8.21038 11.3685C8.85526 11.3897 9.10353 11.4457 9.10353 11.5069C9.10353 11.5682 8.86338 11.6212 8.21849 11.6797C7.78513 11.7174 7.34983 11.729 6.91504 11.7144C6.68564 11.706 6.45698 11.6838 6.23034 11.6479C6.57053 13.4527 6.7431 15.2844 6.74589 17.1201C6.73524 17.7825 6.72434 18.5035 6.41927 19.1127C6.07387 19.7989 5.57481 20.3761 5.24539 21.0678C5.79621 21.1828 6.35442 21.2601 6.91605 21.2993C7.62027 21.3473 8.17614 21.3605 8.60522 21.371C9.45805 21.396 9.79279 21.446 9.8009 21.5493C9.80902 21.6453 9.49304 21.7728 8.62677 21.882C8.04745 21.9495 7.46398 21.9762 6.8808 21.9617C5.9598 21.9418 5.04574 21.7996 4.16332 21.5388C4.06619 21.5493 3.96628 21.5653 3.86636 21.584C3.88599 22.0188 3.85519 22.4543 3.77456 22.8822C4.11426 22.9933 4.46407 23.0717 4.81911 23.1164C5.27557 23.1829 5.7016 23.2122 6.0901 23.2494C6.85925 23.2972 7.4529 23.3451 7.91596 23.3824C8.84157 23.4434 9.19228 23.5339 9.19228 23.6324C9.19228 23.7309 8.84157 23.8239 7.91317 23.8904C7.4491 23.9196 6.82831 23.9251 6.04294 23.9116C5.65443 23.8931 5.21724 23.8771 4.72426 23.8159C4.28424 23.7683 3.85137 23.6702 3.4345 23.5234C3.07095 23.8362 2.68686 24.1249 2.28472 24.3878C1.77475 24.7736 1.12428 25.2628 1.72073 25.8565C1.76628 25.8991 1.80057 25.9521 1.82064 26.0107C1.83896 26.0274 1.85522 26.0461 1.86908 26.0665C2.37739 26.281 2.92012 26.4053 3.47228 26.4337C3.77169 26.4577 4.05774 26.4816 4.33044 26.5054C4.60558 26.5322 4.86475 26.5587 5.11023 26.5827C5.35038 26.6077 5.57709 26.6384 5.79492 26.6517C6.01276 26.6649 6.21335 26.6784 6.40481 26.6917C6.78799 26.7209 7.12552 26.7317 7.41917 26.7502C8.58747 26.8194 9.03556 26.9019 9.03556 27.0029C9.03556 27.1039 8.59305 27.1971 7.41639 27.2609C7.11943 27.2744 6.78241 27.2929 6.38807 27.2876C6.19103 27.2876 5.98055 27.2849 5.75942 27.2849C5.5355 27.2796 5.30068 27.2584 5.04937 27.2424C4.55816 27.2104 4.01319 27.1759 3.40863 27.1359C3.07639 27.1127 2.74602 27.0683 2.41963 27.0029C2.15594 26.9514 1.8989 26.8711 1.65327 26.7634C1.55785 26.8698 1.45407 26.9686 1.34288 27.0589C1.16739 27.1971 0.776103 27.4286 0.802984 27.6894C0.804517 27.7003 0.807238 27.711 0.811099 27.7214C3.16442 28.599 5.90828 28.1788 8.37547 28.1963C11.2063 28.2213 14.3988 28.5255 17.0678 27.4366Z" fill="black"/>
</svg>
